<?xml version="1.0" encoding="UTF-8"?>
<svg version="1.1" xmlns="http://www.w3.org/2000/svg" width="468" height="468">
<path d="M0 0 C0.7425 0.86625 1.485 1.7325 2.25 2.625 C3.054375 3.5221875 3.054375 3.5221875 3.875 4.4375 C8.46476167 11.73939357 8.6290286 18.20214225 8.25 26.625 C6.375 27.25 6.375 27.25 4.25 27.625 C3.26 26.635 3.26 26.635 2.25 25.625 C-21.41854363 19.08200716 -52.88065648 32.47360707 -74.125 42.0625 C-75.11129395 42.504729 -76.09758789 42.94695801 -77.11376953 43.40258789 C-87.05089615 47.99094229 -95.92323193 53.91111285 -104.75390625 60.33984375 C-106.75 61.625 -106.75 61.625 -108.75 61.625 C-108.75 62.285 -108.75 62.945 -108.75 63.625 C-110.2109375 65.02734375 -110.2109375 65.02734375 -112.125 66.5625 C-114.58901524 68.54486617 -115.95466437 69.93199655 -117.75 72.625 C-109.90001142 74.69461327 -102.07964593 76.41253259 -94.0625 77.6875 C-93.00393799 77.86031494 -91.94537598 78.03312988 -90.85473633 78.21118164 C-81.84499164 79.61163603 -72.8332836 80.35076926 -63.72192383 80.67797852 C-56.36810062 81.07588799 -56.36810062 81.07588799 -53.16015625 83.92578125 C-49.81305354 90.33256233 -47.32237575 97.30492664 -48.75 104.625 C-50.79559249 107.93259749 -52.29293697 109.16809738 -56.0390625 110.15234375 C-56.88992432 110.384375 -57.74078613 110.61640625 -58.61743164 110.85546875 C-59.5274292 111.08878906 -60.43742676 111.32210937 -61.375 111.5625 C-63.28263265 112.08173535 -65.19018366 112.6012707 -67.09765625 113.12109375 C-68.98163289 113.62291401 -70.86574151 114.12423909 -72.75 114.625 C-83.01115716 117.38455986 -92.34852188 120.56175135 -101.75 125.625 C-103.7185607 126.60850957 -105.69493769 127.57518879 -107.67163086 128.54223633 C-117.42951455 133.3323451 -127.08591314 138.2914561 -135.671875 145.01953125 C-139.13789489 147.69722707 -142.74836012 150.17814998 -146.33203125 152.6953125 C-148.60927322 154.51269139 -150.13858792 156.21591217 -151.75 158.625 C-151.05777344 158.32207031 -150.36554688 158.01914062 -149.65234375 157.70703125 C-126.84423112 147.94071161 -100.83178947 140.47665927 -75.91943359 140.32983398 C-74.55995277 140.31830746 -73.20051745 140.29784438 -71.84130859 140.26831055 C-62.57414253 140.06753317 -55.97338859 140.19453567 -48.69140625 146.37109375 C-48.23636719 146.92925781 -47.78132812 147.48742187 -47.3125 148.0625 C-46.83941406 148.61808594 -46.36632812 149.17367187 -45.87890625 149.74609375 C-43.48328517 153.73326931 -43.59122223 158.14364378 -43.5625 162.6875 C-43.54832031 163.70972656 -43.53414062 164.73195313 -43.51953125 165.78515625 C-43.74841192 168.60543159 -44.29724221 170.2305336 -45.75 172.625 C-47.07 172.625 -48.39 172.625 -49.75 172.625 C-50.12125 171.8825 -50.4925 171.14 -50.875 170.375 C-53.7835495 166.1091274 -57.89248393 165.02736858 -62.75 163.625 C-66.33762175 163.16891263 -69.82735338 163.19352999 -73.4375 163.3125 C-74.87923584 163.33896606 -74.87923584 163.33896606 -76.35009766 163.3659668 C-79.15151389 163.42711161 -81.94991272 163.52031415 -84.75 163.625 C-85.48009277 163.64723633 -86.21018555 163.66947266 -86.96240234 163.69238281 C-105.1042509 164.2898288 -122.94159907 168.54650675 -139.875 174.9375 C-140.88175781 175.30294922 -141.88851562 175.66839844 -142.92578125 176.04492188 C-149.69653944 178.58067155 -155.66431861 181.74266423 -161.75 185.625 C-162.62744873 186.15109863 -163.50489746 186.67719727 -164.40893555 187.21923828 C-165.89056487 188.10892664 -167.3508901 189.03601346 -168.77734375 190.01171875 C-171.91738097 192.1500263 -174.21448916 193.53231543 -178 194.1875 C-181.5846121 193.45428389 -182.60112353 192.58896755 -184.75 189.625 C-188.38845428 181.84455536 -190.49343206 173.10219922 -187.625 164.75 C-187.03165979 163.3610445 -186.40424304 161.98632878 -185.75 160.625 C-185.39421875 159.87605469 -185.0384375 159.12710938 -184.671875 158.35546875 C-173.81496578 138.11321934 -150.46939928 124.34082601 -131.375 112.875 C-130.09484009 112.10555054 -130.09484009 112.10555054 -128.78881836 111.32055664 C-121.23255194 106.82563579 -113.50828859 102.70370467 -105.69140625 98.68359375 C-102.63652261 97.10894861 -99.66972325 95.44184568 -96.75 93.625 C-97.81476563 93.52703125 -98.87953125 93.4290625 -99.9765625 93.328125 C-124.22573711 90.9074199 -124.22573711 90.9074199 -133.75 83.625 C-133.75 82.965 -133.75 82.305 -133.75 81.625 C-134.41 81.625 -135.07 81.625 -135.75 81.625 C-138.92723613 75.66768226 -139.83488887 70.33719862 -138.75 63.625 C-135.36979468 54.32072349 -129.92632688 46.30300478 -121.75 40.625 C-121.09 40.625 -120.43 40.625 -119.75 40.625 C-119.42 39.635 -119.09 38.645 -118.75 37.625 C-106.50379079 27.55874426 -91.1622352 18.22792043 -76.375 12.62109375 C-73.73772244 11.62034111 -71.23264088 10.46437362 -68.6875 9.25 C-55.79838236 3.37271115 -42.78775995 -1.25321041 -28.75 -3.375 C-27.47576172 -3.57029297 -27.47576172 -3.57029297 -26.17578125 -3.76953125 C-17.36956201 -4.92217775 -7.11813329 -6.14747875 0 0 Z " fill="#090909" transform="translate(209.75,136.375)"/>
<path d="M0 0 C5.11980658 2.40348595 9.94992695 5.53313853 12 11 C12.42081103 14.75612807 12.34319271 16.47758444 10.2421875 19.67578125 C9.46101563 20.54589844 8.67984375 21.41601562 7.875 22.3125 C3.81800502 26.99118299 0.29671899 31.76403454 -3 37 C0.95345629 33.69876366 4.75484174 30.45360747 8 26.4375 C11.13164876 22.63478365 14.80173221 19.58136736 19 17 C19.66 17 20.32 17 21 17 C21.24492187 16.42121094 21.48984375 15.84242188 21.7421875 15.24609375 C25.31428071 8.86735588 33.31156182 2.90747406 40 0 C47.6066363 -1.98809812 54.10151943 -0.81971361 60.859375 3.0703125 C63.766208 5.16046385 64.93430603 6.7724272 65.92578125 10.20703125 C66.02254623 15.15223126 64.4616593 17.49527363 61.6875 21.4375 C61.27048828 22.07365234 60.85347656 22.70980469 60.42382812 23.36523438 C59.3508944 24.95837838 58.18213379 26.48611285 57 28 C56.34 28 55.68 28 55 28 C54.88011719 28.58394531 54.76023437 29.16789062 54.63671875 29.76953125 C53.9764913 32.08235255 53.11609901 33.67514814 51.8125 35.6875 C51.36519531 36.38617188 50.91789063 37.08484375 50.45703125 37.8046875 C49.49202589 39.25866341 48.51034065 40.70171655 47.51171875 42.1328125 C43.57837271 47.80414865 40.68404419 53.64617858 38 60 C42.04381794 58.27264073 45.28643839 55.53884226 48.6875 52.8125 C49.3067334 52.32362305 49.9259668 51.83474609 50.56396484 51.33105469 C53.32957242 49.14590103 56.07033298 46.94133972 58.77734375 44.68359375 C59.93943359 43.72646484 59.93943359 43.72646484 61.125 42.75 C61.78757812 42.18796875 62.45015625 41.6259375 63.1328125 41.046875 C65 40 65 40 67.1796875 40.265625 C69 41 69 41 70 42 C70.84692472 48.63424362 68.80697358 53.57486722 65 59 C61.34363694 63.02703639 57.29167504 66.66555233 53 70 C52.34 70 51.68 70 51 70 C50.80664062 70.54914063 50.61328125 71.09828125 50.4140625 71.6640625 C48.38739398 75.01198453 45.45388238 77.05362678 42.375 79.375 C41.74126465 79.85888184 41.1075293 80.34276367 40.45458984 80.84130859 C39.20016393 81.7984224 37.94386499 82.75308719 36.68554688 83.70507812 C35.29106374 84.7763902 33.92975018 85.89072404 32.578125 87.015625 C28.10690715 90.69990851 24.90253997 92.3870518 19 92 C14.78546735 88.79329038 13.6871037 85.74685533 12.625 80.625 C11.02099713 68.01099681 12.78861677 57.06962798 16.94140625 45.23046875 C18.15569879 42.09144222 18.15569879 42.09144222 18 39 C17.50371094 39.43570313 17.00742187 39.87140625 16.49609375 40.3203125 C15.81675781 40.91585937 15.13742187 41.51140625 14.4375 42.125 C13.7053125 42.76824219 12.973125 43.41148437 12.21875 44.07421875 C10.87782254 45.23808713 9.52645301 46.39027496 8.15625 47.51953125 C4.32249337 50.68238047 1.04417206 54.0671971 -2.171875 57.85546875 C-4.13216936 60.15504483 -6.15680847 62.38747878 -8.1875 64.625 C-10.4707796 67.17326369 -12.54507202 69.67134985 -14.375 72.5625 C-15.179375 73.7690625 -15.179375 73.7690625 -16 75 C-16.66 75 -17.32 75 -18 75 C-18.41958984 75.85078125 -18.41958984 75.85078125 -18.84765625 76.71875 C-20.0024045 79.00476009 -21.20386371 81.25562744 -22.4375 83.5 C-22.84871094 84.2528125 -23.25992188 85.005625 -23.68359375 85.78125 C-25.01668371 88.02811973 -26.24294603 90.06118183 -28 92 C-32.25433993 92.54023364 -34.66787781 92.82807596 -38.3125 90.5625 C-42.46244072 84.26073817 -43.15578241 78.38408635 -43 71 C-43.8971875 71.70125 -44.794375 72.4025 -45.71875 73.125 C-52.36148193 78.21410272 -58.99174595 82.83323474 -66.5 86.5625 C-67.14517578 86.88412109 -67.79035156 87.20574219 -68.45507812 87.53710938 C-77.58770884 91.90981674 -87.43388388 93.9157794 -97.4375 91.3828125 C-104.64677978 88.20059135 -109.4446892 82.00524046 -112.4375 74.875 C-116.27062252 62.87782433 -114.04575126 51.85008088 -108.9375 40.67578125 C-103.42989497 30.02392013 -95.61563154 20.19809091 -86 13 C-85.34 13 -84.68 13 -84 13 C-83.67 12.01 -83.34 11.02 -83 10 C-72.68703155 2.18714511 -61.91249634 -1.47571387 -49 0 C-44.88065231 1.01712289 -42.1255778 2.38920244 -39.66796875 5.90625 C-36.14721437 12.57453391 -34.82149212 18.98383002 -36.99609375 26.39453125 C-41.95673703 38.15757426 -49.58460331 48.54164129 -61.421875 54.234375 C-67.08840998 55.91716418 -75.38921237 56.86135219 -80.79589844 54.07421875 C-82.24221618 53.11396556 -83.62804373 52.06379378 -85 51 C-85.2765289 53.07997826 -85.52030075 55.1643308 -85.75 57.25 C-85.88921875 58.41015625 -86.0284375 59.5703125 -86.171875 60.765625 C-86.28699287 64.04584554 -86.28699287 64.04584554 -84.30859375 66.37890625 C-80.02520874 69.38669775 -76.01733928 68.87631611 -71 68 C-63.76533538 65.69181344 -56.74065491 62.48472499 -50 59 C-50 58.34 -50 57.68 -50 57 C-48.35443434 55.96564444 -46.6829392 54.97236487 -45 54 C-40.80184943 51.13936996 -39.36605501 49.23470036 -38.1875 44.3125 C-36.6069335 38.60955803 -34.53369188 33.4095959 -32 28.0625 C-31.66766357 27.35327393 -31.33532715 26.64404785 -30.99291992 25.91333008 C-28.96464091 21.69369184 -26.65768269 17.8667333 -24 14 C-23.401875 12.865625 -22.80375 11.73125 -22.1875 10.5625 C-16.79367995 0.91379402 -10.73179487 -2.30472011 0 0 Z M-62.5 24.1875 C-63.4384375 24.79980469 -64.376875 25.41210938 -65.34375 26.04296875 C-67.83275043 27.87677642 -69.96145879 29.67779386 -72 32 C-72 32.66 -72 33.32 -72 34 C-72.99 34.33 -73.98 34.66 -75 35 C-75.33 35.99 -75.66 36.98 -76 38 C-65.95450063 35.86265971 -59.24704264 29.9142598 -53 22 C-57.07815078 20.27832786 -58.98959367 21.84883644 -62.5 24.1875 Z M-4 37 C-4 40 -4 40 -4 40 Z " fill="#0A0A0A" transform="translate(354,207)"/>
<path d="M0 0 C4.473456 2.55233993 7.17451802 5.59550723 8.9375 10.4375 C10.00891295 14.41892342 10.35069157 17.8618395 10 22 C9.94199219 22.83789062 9.88398438 23.67578125 9.82421875 24.5390625 C8.12232654 39.7535688 -1.69043697 53.53565545 -10 66 C-10.66 66 -11.32 66 -12 66 C-12 66.99 -12 67.98 -12 69 C-13.62309656 70.70912642 -15.2979598 72.3694741 -17 74 C-19.34986682 76.85731315 -21.63264458 79.75975793 -23.9140625 82.671875 C-26 85 -26 85 -29 86 C-29.69886508 87.31674212 -30.36270465 88.65238104 -31 90 C-33.13479506 92.31819419 -35.54762632 94.32342968 -37.9375 96.375 C-38.60612061 96.95282227 -39.27474121 97.53064453 -39.96362305 98.12597656 C-45.25165726 102.58982773 -50.69802882 106.10417897 -57 109 C-57.99 109.495 -57.99 109.495 -59 110 C-63.18053273 110.47326786 -65.22266617 110.59225435 -68.625 108 C-75.95502826 98.74101694 -77.83660822 91.90104646 -77 80 C-72.98228234 58.28136625 -62.76969708 33.76969708 -47 18 C-34.84487321 16.7668712 -34.84487321 16.7668712 -29.8125 20.25 C-25.64960282 24.32038835 -25.64960282 24.32038835 -25 27 C-25.43669364 31.77003819 -26.80591186 34.72158548 -29.4375 38.6875 C-33.01912977 44.24300205 -36.19180445 49.95347897 -39.25 55.8125 C-39.86766235 56.99428833 -39.86766235 56.99428833 -40.49780273 58.19995117 C-41.67347832 60.46247776 -42.83795067 62.7304506 -44 65 C-44.37672852 65.72429199 -44.75345703 66.44858398 -45.14160156 67.19482422 C-46.88215207 70.58518937 -48.44579386 73.74703799 -49.25 77.5 C-49.4975 78.655 -49.745 79.81 -50 81 C-41.95286259 78.24098146 -37.87916808 72.60403024 -33 66 C-32.2575 65.03449219 -31.515 64.06898438 -30.75 63.07421875 C-25.36522119 55.94124893 -20.85138195 48.46456188 -16.5625 40.625 C-16.05436768 39.69792236 -15.54623535 38.77084473 -15.02270508 37.81567383 C-10.64900247 29.66438264 -7.46815125 22.97803067 -7.6875 13.625 C-7.68266602 12.55958984 -7.68266602 12.55958984 -7.67773438 11.47265625 C-7.60830717 7.27692011 -7.60830717 7.27692011 -10 4 C-9.75 1.9375 -9.75 1.9375 -9 0 C-5.72766691 -1.63616654 -3.49970684 -0.86058365 0 0 Z " fill="#0B0B0B" transform="translate(247,189)"/>
<path d="M0 0 C6.08611187 1.15636126 10.99763513 3.26614864 15.1875 7.875 C15.6825 8.6175 16.1775 9.36 16.6875 10.125 C14.82928868 13.4432345 13.02377319 16.65421753 10.8125 19.75 C7.54636334 24.93739351 5.17687228 30.53221027 2.6875 36.125 C-6.99304461 35.91455338 -6.99304461 35.91455338 -10.875 32.6875 C-14.29287351 29.09435093 -14.71659305 26.8810007 -14.66015625 21.8984375 C-13.8036428 15.06557738 -10.89388345 7.97705052 -7.0625 2.25 C-4.09204309 -0.04535307 -3.55469888 -0.21950113 0 0 Z " fill="#0E0E0E" transform="translate(425.3125,277.875)"/>
<path d="M0 0 C0.33 0 0.66 0 1 0 C0.125 7.875 0.125 7.875 -1 9 C-3.83886957 18.73918756 -3.18700535 28.97443556 -3 39 C-6.36471935 35.63528065 -6.21358184 32.31064783 -6.3125 27.75 C-6.26188385 18.00132879 -3.76645685 8.97502557 0 0 Z " fill="#666666" transform="translate(176,249)"/>
<path d="M0 0 C0.99 0.33 1.98 0.66 3 1 C2.34 1 1.68 1 1 1 C0.72288474 3.22595848 0.47933071 5.45611221 0.25 7.6875 C0.11078125 8.92886719 -0.0284375 10.17023438 -0.171875 11.44921875 C0.03109995 15.64249675 1.1017367 17.06241918 4 20 C1.625 19.6875 1.625 19.6875 -1 19 C-3.49143957 15.26284065 -3.52843512 12.32704117 -3 8 C-2.18120238 5.21230175 -1.14834054 2.67946126 0 0 Z " fill="#303030" transform="translate(268,256)"/>
<path d="M0 0 C0.33 0.99 0.66 1.98 1 3 C-0.26257233 4.17560179 -1.53537084 5.34022865 -2.8125 6.5 C-3.87404297 7.47453125 -3.87404297 7.47453125 -4.95703125 8.46875 C-7 10 -7 10 -10 10 C-3.84965831 2.51708428 -3.84965831 2.51708428 0 0 Z " fill="#373737" transform="translate(369,227)"/>
<path d="M0 0 C-1.60194071 0.98280415 -3.20663742 1.96111717 -4.8125 2.9375 C-6.15248047 3.75541016 -6.15248047 3.75541016 -7.51953125 4.58984375 C-10 6 -10 6 -13 7 C-13 6.34 -13 5.68 -13 5 C-10.91796875 3.45703125 -10.91796875 3.45703125 -8.1875 1.8125 C-7.29417969 1.26207031 -6.40085937 0.71164063 -5.48046875 0.14453125 C-3 -1 -3 -1 0 0 Z " fill="#3D3D3D" transform="translate(284,212)"/>
<path d="M0 0 C0.66 1.32 1.32 2.64 2 4 C3.65 3.34 5.3 2.68 7 2 C7 2.99 7 3.98 7 5 C4.64561267 6.42944945 3.51967567 7.08661261 0.75 6.625 C0.1725 6.41875 -0.405 6.2125 -1 6 C-0.67 4.02 -0.34 2.04 0 0 Z " fill="#555555" transform="translate(196,266)"/>
<path d="M0 0 C-3.33333333 2.66666667 -6.66666667 5.33333333 -10 8 C-7.95662621 2.18424383 -6.49689233 -0.52677505 0 0 Z " fill="#515151" transform="translate(426,278)"/>
<path d="M0 0 C3.96 0.33 7.92 0.66 12 1 C7.01222852 3.49388574 5.33016752 2.88836125 0 2 C0 1.34 0 0.68 0 0 Z " fill="#3B3B3B" transform="translate(117,215)"/>
<path d="M0 0 C0.33 0 0.66 0 1 0 C1.268125 1.258125 1.53625 2.51625 1.8125 3.8125 C2.59532537 6.99448801 3.25335928 9.00244311 6 11 C1.125 10.125 1.125 10.125 0 9 C-0.07179964 7.48071962 -0.08392007 5.95832518 -0.0625 4.4375 C-0.05347656 3.61121094 -0.04445313 2.78492188 -0.03515625 1.93359375 C-0.02355469 1.29550781 -0.01195312 0.65742188 0 0 Z " fill="#5F5F5F" transform="translate(266,265)"/>
<path d="M0 0 C0.33 0 0.66 0 1 0 C0.67 2.97 0.34 5.94 0 9 C-0.66 9 -1.32 9 -2 9 C-1.125 1.125 -1.125 1.125 0 0 Z " fill="#454545" transform="translate(173,260)"/>
<path d="" fill="#FFFFFF" transform="translate(0,0)"/>
<path d="" fill="#FFFFFF" transform="translate(0,0)"/>
<path d="" fill="#FFFFFF" transform="translate(0,0)"/>
<path d="" fill="#FFFFFF" transform="translate(0,0)"/>
<path d="" fill="#FFFFFF" transform="translate(0,0)"/>
<path d="" fill="#FFFFFF" transform="translate(0,0)"/>
<path d="" fill="#FFFFFF" transform="translate(0,0)"/>
<path d="" fill="#FFFFFF" transform="translate(0,0)"/>
<path d="" fill="#FFFFFF" transform="translate(0,0)"/>
<path d="" fill="#FFFFFF" transform="translate(0,0)"/>
<path d="" fill="#FFFFFF" transform="translate(0,0)"/>
<path d="" fill="#FFFFFF" transform="translate(0,0)"/>
<path d="" fill="#FFFFFF" transform="translate(0,0)"/>
<path d="" fill="#FFFFFF" transform="translate(0,0)"/>
<path d="" fill="#FFFFFF" transform="translate(0,0)"/>
<path d="" fill="#FFFFFF" transform="translate(0,0)"/>
<path d="" fill="#FFFFFF" transform="translate(0,0)"/>
<path d="" fill="#FFFFFF" transform="translate(0,0)"/>
<path d="" fill="#FFFFFF" transform="translate(0,0)"/>
<path d="" fill="#FFFFFF" transform="translate(0,0)"/>
<path d="" fill="#FFFFFF" transform="translate(0,0)"/>
<path d="" fill="#FFFFFF" transform="translate(0,0)"/>
<path d="" fill="#FFFFFF" transform="translate(0,0)"/>
<path d="" fill="#FFFFFF" transform="translate(0,0)"/>
<path d="" fill="#FFFFFF" transform="translate(0,0)"/>
<path d="" fill="#FFFFFF" transform="translate(0,0)"/>
<path d="" fill="#FFFFFF" transform="translate(0,0)"/>
<path d="" fill="#FFFFFF" transform="translate(0,0)"/>
<path d="" fill="#FFFFFF" transform="translate(0,0)"/>
<path d="" fill="#FFFFFF" transform="translate(0,0)"/>
<path d="" fill="#FFFFFF" transform="translate(0,0)"/>
<path d="" fill="#FFFFFF" transform="translate(0,0)"/>
<path d="" fill="#FFFFFF" transform="translate(0,0)"/>
<path d="" fill="#FFFFFF" transform="translate(0,0)"/>
<path d="" fill="#FFFFFF" transform="translate(0,0)"/>
<path d="" fill="#FFFFFF" transform="translate(0,0)"/>
<path d="" fill="#FFFFFF" transform="translate(0,0)"/>
<path d="" fill="#FFFFFF" transform="translate(0,0)"/>
<path d="" fill="#FFFFFF" transform="translate(0,0)"/>
<path d="" fill="#FFFFFF" transform="translate(0,0)"/>
<path d="" fill="#FFFFFF" transform="translate(0,0)"/>
</svg>
