<?xml version="1.0" encoding="UTF-8"?>
<svg version="1.1" xmlns="http://www.w3.org/2000/svg" width="100" height="81">
<path d="M0 0 C0.35868409 6.21719083 0.35868409 6.21719083 -0.98754883 9.15527344 C-4.03640601 11.95002836 -7.4291186 11.93235447 -11.38671875 12.265625 C-12.20372757 12.34874939 -13.02073639 12.43187378 -13.86250305 12.51751709 C-16.46948497 12.77879635 -19.07805968 13.01467733 -21.6875 13.25 C-23.45654399 13.42281066 -25.22542774 13.59727023 -26.99414062 13.7734375 C-31.32780055 14.20143921 -35.66306037 14.60668128 -40 15 C-38.68 16.32 -37.36 17.64 -36 19 C-37.6658292 25.16356805 -40.87805286 30.48259656 -44 36 C-42.948125 35.71125 -41.89625 35.4225 -40.8125 35.125 C-33.01013026 33.17788456 -25.05172699 31.83074448 -17 32 C-18.75 37.75 -18.75 37.75 -21 40 C-23.79736328 40.50244141 -23.79736328 40.50244141 -27.3203125 40.8515625 C-29.20556641 41.04492188 -29.20556641 41.04492188 -31.12890625 41.2421875 C-32.46091924 41.3699821 -33.79295076 41.49758378 -35.125 41.625 C-36.4649253 41.75960732 -37.80477054 41.89501425 -39.14453125 42.03125 C-42.42898281 42.36205807 -45.71403761 42.68461334 -49 43 C-49.30413818 43.76352783 -49.60827637 44.52705566 -49.92163086 45.3137207 C-50.68259571 47.20932774 -51.46179566 49.09766383 -52.25390625 50.98046875 C-56.22013046 60.66433313 -56.22013046 60.66433313 -57 71 C-54.50563777 73.49436223 -53.64282701 73.32440956 -50.1875 73.375 C-43.35970225 73.27591586 -37.4031886 71.18709734 -31 69 C-28.68359375 68.30859375 -28.68359375 68.30859375 -27 68 C-26 69 -26 69 -25.6875 71.8125 C-26 75 -26 75 -27.5625 77.25 C-33.42816014 81.46124318 -40.10868775 81.33831222 -47.0625 81.3125 C-47.93455078 81.32861328 -48.80660156 81.34472656 -49.70507812 81.36132812 C-55.79416758 81.36593758 -59.93557668 80.43970183 -64.8203125 76.55078125 C-67.17218422 73.45908234 -67.10856423 69.72737185 -67 66 C-66.36959791 62.30190877 -65.57686209 58.68412287 -64.69140625 55.0390625 C-63.88908111 52.03191154 -63.88908111 52.03191154 -64 49 C-71.81298428 53.41795468 -71.81298428 53.41795468 -76 61 C-75.92470054 64.05715819 -75.55427703 66.99488357 -75 70 C-77.875 69.6875 -77.875 69.6875 -81 69 C-83.21948211 65.67077683 -83.28942536 64.12763135 -82.6484375 60.24609375 C-80.29646181 52.09919001 -74.75435163 47.56390465 -67.6953125 43.3515625 C-65.37785028 42.18947275 -63.45096752 41.47384663 -60.9375 40.9375 C-59.968125 40.628125 -58.99875 40.31875 -58 40 C-57.2917244 38.01435398 -56.63623926 36.00988658 -56 34 C-54.55816606 31.00867989 -52.96524231 28.10211598 -51.375 25.1875 C-50.54772675 23.66110472 -49.7221104 22.13380986 -48.8984375 20.60546875 C-48.53411621 19.93668701 -48.16979492 19.26790527 -47.79443359 18.57885742 C-46.92508708 17.14569476 -46.92508708 17.14569476 -47 16 C-56.95547665 17.98067075 -67.83668935 21.37454027 -75 29 C-76.65291451 32.3680093 -76.65291451 32.3680093 -77 36 C-75.86250805 38.78508316 -75.86250805 38.78508316 -74 41 C-73.34 41.99 -72.68 42.98 -72 44 C-73 45 -73 45 -74.92578125 45.01953125 C-78.56586601 44.70377922 -81.34762355 44.36596728 -84.5625 42.5625 C-86.84986334 38.48502622 -86.59995371 34.5610939 -86 30 C-84.75 26.6875 -84.75 26.6875 -83 24 C-82.2265625 22.7625 -82.2265625 22.7625 -81.4375 21.5 C-67.67863528 7.38834388 -44.40777396 5.48858677 -26 3 C-24.9063916 2.84901855 -23.8127832 2.69803711 -22.68603516 2.54248047 C-4.19751214 0 -4.19751214 0 0 0 Z " fill="#FFFCFC" transform="translate(86,0)"/>
</svg>
