<?xml version="1.0" encoding="UTF-8"?>
<svg version="1.1" xmlns="http://www.w3.org/2000/svg" width="500" height="500">
<path d="M0 0 C1.10794922 -0.00386719 2.21589844 -0.00773437 3.35742188 -0.01171875 C5.01161133 -0.00978516 5.01161133 -0.00978516 6.69921875 -0.0078125 C8.17201294 -0.00612061 8.17201294 -0.00612061 9.67456055 -0.00439453 C12.77787592 0.10598445 15.82092876 0.33828979 18.91162109 0.62011719 C25.39318628 1.18211221 31.83692591 1.29374949 38.33984375 1.3359375 C40.78451236 1.36396651 43.22917375 1.39263059 45.67382812 1.421875 C49.48120214 1.46332118 53.28843516 1.50026351 57.09594727 1.52636719 C60.80251778 1.55390239 64.50849932 1.59971933 68.21484375 1.6484375 C69.92425392 1.6533168 69.92425392 1.6533168 71.66819763 1.65829468 C73.26124474 1.68314438 73.26124474 1.68314438 74.88647461 1.70849609 C75.81624619 1.71658295 76.74601776 1.7246698 77.70396423 1.73300171 C80.91129053 2.21498338 82.77355082 3.11080953 85.3125 5.125 C86.00071716 7.19773865 86.00071716 7.19773865 86.09155273 9.58764648 C86.13794891 10.47821747 86.18434509 11.36878845 86.23214722 12.28634644 C86.25866364 13.22310211 86.28518005 14.15985779 86.3125 15.125 C86.36117218 16.03621613 86.40984436 16.94743225 86.45999146 17.88626099 C86.61618858 20.83113264 86.73550026 23.7757917 86.84765625 26.72265625 C86.89063339 27.79696396 86.93361053 28.87127167 86.97789001 29.97813416 C87.06750405 32.23447111 87.15566382 34.49086625 87.24243164 36.74731445 C87.37476135 40.18130699 87.51221552 43.61506633 87.65039062 47.04882812 C87.73728212 49.25259224 87.82388055 51.45636794 87.91015625 53.66015625 C87.97107201 55.18395653 87.97107201 55.18395653 88.03321838 56.73854065 C88.25380393 62.53920743 88.35108176 68.32013049 88.3125 74.125 C87.66055664 74.41745605 87.00861328 74.70991211 86.33691406 75.01123047 C85.66885742 75.37877441 85.00080078 75.74631836 84.3125 76.125 C84.18359375 76.72570312 84.0546875 77.32640625 83.921875 77.9453125 C82.97074456 81.34743291 80.24659891 82.91121007 77.5625 85 C71.65759872 89.76535892 66.51228636 94.97019972 61.45214844 100.61669922 C57.47934954 105.04157523 57.47934954 105.04157523 55.3125 106.125 C52.32854948 106.25874449 49.3643799 106.33530018 46.37890625 106.37109375 C44.51236657 106.40411508 42.64583021 106.43732492 40.77929688 106.47070312 C37.85541921 106.51747547 34.93154555 106.56172488 32.00756836 106.60180664 C5.739812 106.97922343 -22.93189633 107.39879044 -44.6875 124.125 C-43.6521109 124.12055878 -42.6167218 124.11611755 -41.54995728 124.11154175 C-31.8085061 124.07105787 -22.06707191 124.04104558 -12.3255558 124.02137566 C-7.31693653 124.01092333 -2.30838498 123.99673779 2.70019531 123.97412109 C7.53068333 123.95244425 12.36110606 123.9404423 17.19163895 123.93524551 C19.03769585 123.93154046 20.88374906 123.92430575 22.72977829 123.91353989 C25.30870124 123.89909343 27.88735191 123.89701917 30.46630859 123.89794922 C31.61968971 123.88716339 31.61968971 123.88716339 32.79637146 123.87615967 C38.08439568 123.89689568 38.08439568 123.89689568 40.3125 126.125 C41.51763716 130.343704 41.49470456 134.62487801 41.55859375 138.98046875 C41.59149829 140.50456377 41.62471045 142.02865217 41.65820312 143.55273438 C41.70579794 145.94258574 41.75032464 148.33240402 41.78930664 150.72241211 C41.82888897 153.03785962 41.88042307 155.35279911 41.93359375 157.66796875 C41.94621498 158.74451973 41.94621498 158.74451973 41.95909119 159.84281921 C41.94664036 163.934975 41.94664036 163.934975 44.3125 167.125 C44.91456951 172.18238387 43.77743004 176.70745664 41.3125 181.125 C38.96531118 183.5090226 36.33502834 185.32818583 33.5625 187.1875 C27.92916954 191.08143458 23.00762195 195.12234941 18.3125 200.125 C19.43269531 200.16238281 20.55289063 200.19976562 21.70703125 200.23828125 C23.1797209 200.30394257 24.65237566 200.37038986 26.125 200.4375 C27.23198242 200.47133789 27.23198242 200.47133789 28.36132812 200.50585938 C33.72068952 200.77261492 33.72068952 200.77261492 36.1953125 202.24609375 C42.50968593 212.86572178 44.09434004 231.05653626 43.3125 243.125 C41.83553444 247.75590243 39.60683708 250.61338935 36.3125 254.125 C34.85288789 255.9990047 33.39458764 257.87403179 31.9375 259.75 C21.51212943 272.09815465 12.39370491 279.90831373 -4.16178894 281.33879089 C-6.65302766 281.44673344 -9.13948783 281.50498713 -11.6328125 281.5390625 C-12.97664505 281.56811172 -12.97664505 281.56811172 -14.34762573 281.5977478 C-17.16915798 281.65684765 -19.99073259 281.70364653 -22.8125 281.75 C-24.74220389 281.78824405 -26.67189189 281.82729936 -28.6015625 281.8671875 C-33.29674369 281.96249055 -37.99200452 282.04677354 -42.6875 282.125 C-40.2752116 284.68776513 -38.21173371 286.61809395 -34.9921875 288.0546875 C-33.93245728 288.53095581 -33.93245728 288.53095581 -32.85131836 289.0168457 C-32.0960083 289.34128662 -31.34069824 289.66572754 -30.5625 290 C-29.7691626 290.34442139 -28.9758252 290.68884277 -28.15844727 291.04370117 C-1.90309124 302.22495519 28.87403555 308.92341882 56.9765625 300.48046875 C61.68630411 298.56679154 66.00087809 296.09809417 70.39453125 293.5546875 C74.7554498 291.41801255 77.54592409 291.35619743 82.3125 292.125 C85.48777079 294.60870128 86.18713097 297.31582625 86.97265625 301.23046875 C87.66982044 307.16838445 87.45401493 313.1577872 87.3125 319.125 C88.40046875 319.24617188 89.4884375 319.36734375 90.609375 319.4921875 C95.25747751 320.2864835 97.07205129 321.73725817 100.3125 325.125 C103.93194001 331.03675202 104.32532638 337.30530236 103.3125 344.125 C101.25 347.4375 101.25 347.4375 98.3125 349.125 C94.5 348.9375 94.5 348.9375 91.3125 348.125 C91.84875 348.82625 92.385 349.5275 92.9375 350.25 C94.3125 353.125 94.3125 353.125 93.640625 356.00390625 C86.97825113 371.66048484 67.14159227 381.58023981 52.3125 388.125 C10.14381333 404.74210042 -39.38463192 400.66420174 -80.81201172 382.95654297 C-97.83177945 375.41041841 -113.44795388 366.13262912 -127.6875 354.125 C-128.20940918 353.68961914 -128.73131836 353.25423828 -129.26904297 352.80566406 C-143.91190465 340.46163414 -153.17148304 326.64344429 -160.6875 309.125 C-165.0041388 299.25208111 -165.0041388 299.25208111 -170.6875 290.125 C-171.06140869 289.60043213 -171.43531738 289.07586426 -171.82055664 288.53540039 C-174.70776171 286.35423344 -177.20347494 286.82352477 -180.76953125 286.90234375 C-181.4613298 286.91133194 -182.15312836 286.92032013 -182.8658905 286.92958069 C-185.07777161 286.95958903 -187.28856317 287.00932542 -189.5 287.0625 C-191.70065459 287.11049236 -193.90100961 287.15386767 -196.10197449 287.18470764 C-198.10699314 287.2134116 -200.11175741 287.25849794 -202.11645508 287.30444336 C-205.67743568 287.12550573 -208.38396992 286.42214432 -211.6875 285.125 C-211.6875 284.465 -211.6875 283.805 -211.6875 283.125 C-212.62529297 282.7846875 -212.62529297 282.7846875 -213.58203125 282.4375 C-216.40662799 280.67671242 -216.59044196 279.31765238 -217.375 276.125 C-217.60574219 275.238125 -217.83648437 274.35125 -218.07421875 273.4375 C-219.68935918 264.71368416 -219.89641751 255.97827585 -219.9375 247.125 C-219.958125 246.01382813 -219.97875 244.90265625 -220 243.7578125 C-220.04191546 234.85077721 -219.02891605 226.09883838 -213.40625 218.84765625 C-210.38718032 215.82172504 -206.91683696 213.44045568 -203.40625 211.01953125 C-200.64496727 209.16040227 -200.64496727 209.16040227 -198.109375 206.9296875 C-195.62815695 205.08077986 -194.46139948 204.60485322 -191.4375 204.4375 C-187.89608552 204.5488996 -187.89608552 204.5488996 -186.6875 203.125 C-190.76017995 202.33987319 -194.46189454 202.05678775 -198.6015625 202.23828125 C-199.69210938 202.26857422 -200.78265625 202.29886719 -201.90625 202.33007812 C-204.18558483 202.40196082 -206.46438646 202.4932576 -208.7421875 202.60351562 C-211.82838554 202.67116333 -214.64868763 202.67221688 -217.6875 202.125 C-224.59690639 195.06625486 -223.70274597 183.56424408 -223.68066406 174.23779297 C-223.6319117 171.09426038 -223.54346258 167.95460494 -223.4375 164.8125 C-223.41123535 163.8112207 -223.3849707 162.80994141 -223.35791016 161.77832031 C-222.99865003 153.18731723 -221.90034896 144.34144865 -215.7578125 137.859375 C-207.49864283 130.94037248 -199.70716016 126.92963829 -188.8125 127.0625 C-187.36230469 127.07603516 -187.36230469 127.07603516 -185.8828125 127.08984375 C-185.15835938 127.10144531 -184.43390625 127.11304688 -183.6875 127.125 C-183.58695313 126.44050781 -183.48640625 125.75601563 -183.3828125 125.05078125 C-182.55139466 121.55228707 -181.16600745 118.50763403 -179.5625 115.3125 C-179.2226709 114.63453369 -178.8828418 113.95656738 -178.53271484 113.25805664 C-172.96195402 102.47259688 -166.24553267 92.3259818 -159.6875 82.125 C-159.19926758 81.35639648 -158.71103516 80.58779297 -158.20800781 79.79589844 C-139.15178061 49.81428822 -112.99638218 37.08724249 -81.86865234 21.69970703 C-79.752522 20.65219815 -77.64381872 19.58954613 -75.54296875 18.51171875 C-73.1626481 17.35574908 -70.93414661 16.45431578 -68.4140625 15.6796875 C-65.22482442 14.65566909 -62.12287216 13.52828405 -59.0234375 12.2578125 C-46.15688986 7.02034335 -33.35399635 3.58266528 -19.6875 1.125 C-18.01880859 0.81755859 -18.01880859 0.81755859 -16.31640625 0.50390625 C-10.87750809 -0.06398731 -5.46441194 -0.01874584 0 0 Z M71.3125 14.125 C72.3025 15.445 73.2925 16.765 74.3125 18.125 C74.3125 16.805 74.3125 15.485 74.3125 14.125 C73.3225 14.125 72.3325 14.125 71.3125 14.125 Z M68.8125 306.9375 C63.72054298 309.5139328 58.77196962 311.48715911 53.3125 313.125 C53.3125 313.455 53.3125 313.785 53.3125 314.125 C60.5725 314.125 67.8325 314.125 75.3125 314.125 C75.3125 310.825 75.3125 307.525 75.3125 304.125 C73.12300203 304.125 70.67846117 305.96917924 68.8125 306.9375 Z M58.3125 369.125 C58.3125 370.115 58.3125 371.105 58.3125 372.125 C59.6325 371.135 60.9525 370.145 62.3125 369.125 C60.9925 369.125 59.6725 369.125 58.3125 369.125 Z " fill="#080808" transform="translate(314.6875,50.875)"/>
<path d="M0 0 C4.89749983 0.71312932 9.74208871 0.61158141 14.68432617 0.6015625 C16.91154943 0.6150137 19.13876366 0.63003596 21.3659668 0.64648438 C24.85969589 0.66933527 28.352397 0.68356561 31.84619141 0.67114258 C35.23047987 0.66232001 38.61274713 0.69123173 41.99682617 0.7265625 C43.03556381 0.71433151 44.07430145 0.70210052 45.14451599 0.6894989 C50.86802947 0.78481785 55.06478875 1.3268648 59.20317078 5.52980042 C61.62347153 9.48309432 61.25736746 13.64235205 61.09057617 18.14453125 C61.08067154 19.15705963 61.07076691 20.16958801 61.06056213 21.21279907 C61.02150463 24.43372982 60.93369679 27.65120054 60.84448242 30.87109375 C60.80935749 33.05984647 60.77742056 35.24865283 60.7487793 37.4375 C60.6717724 42.79153687 60.55477268 48.14356813 60.40698242 53.49609375 C59.53240387 53.50195999 58.65782532 53.50782623 57.75674438 53.51387024 C49.43284353 53.57226121 41.10919789 53.64459386 32.78554726 53.73180866 C28.50833721 53.77615424 24.23121462 53.8154842 19.95385742 53.8425293 C15.81040473 53.86892603 11.66729547 53.9095705 7.5240593 53.95928001 C5.95922561 53.97570722 4.39433288 53.98736912 2.82942581 53.99370766 C-23.70611973 54.11184319 -47.64858214 59.81701524 -67.59301758 78.49609375 C-77.25492665 88.51345767 -85.99608254 102.2584001 -90.59301758 115.49609375 C-90.45263524 119.35660815 -90.32122395 120.76788738 -87.59301758 123.49609375 C-85.6875801 123.79321197 -85.6875801 123.79321197 -83.48019409 123.73660278 C-82.61920105 123.73935211 -81.75820801 123.74210144 -80.87112427 123.74493408 C-79.92453949 123.73774353 -78.97795471 123.73055298 -78.00268555 123.72314453 C-76.50995117 123.72358261 -76.50995117 123.72358261 -74.98706055 123.72402954 C-71.68635441 123.72263235 -68.38587194 123.70705279 -65.08520508 123.69140625 C-62.80119958 123.68767751 -60.51719248 123.68482988 -58.23318481 123.68283081 C-52.21286628 123.67518345 -46.19264379 123.65552549 -40.17236328 123.63342285 C-34.03264668 123.61298815 -27.89291461 123.60383418 -21.75317383 123.59375 C-9.69973936 123.57228063 2.35359853 123.53708951 14.40698242 123.49609375 C14.40698242 133.39609375 14.40698242 143.29609375 14.40698242 153.49609375 C0.91468639 154.62045175 0.91468639 154.62045175 -5.03540039 154.76147461 C-5.68444839 154.77791519 -6.3334964 154.79435577 -7.00221252 154.81129456 C-8.38519 154.84601983 -9.76820542 154.87926329 -11.15125275 154.91108513 C-13.35784898 154.9623717 -15.56425858 155.01890555 -17.77069092 155.07679749 C-24.03534405 155.24054923 -30.30014278 155.39754109 -36.56518555 155.5456543 C-40.4242139 155.63725333 -44.28297592 155.73678413 -48.14168549 155.84091377 C-49.59091663 155.8785172 -51.04022532 155.91326871 -52.48960114 155.94480705 C-61.42409459 156.14002802 -70.12881329 156.80422871 -78.97711182 158.03916931 C-84.66980456 158.75852723 -90.36180559 158.95355528 -96.09301758 159.12109375 C-97.21321289 159.15976563 -98.3334082 159.1984375 -99.48754883 159.23828125 C-102.18922943 159.3306464 -104.89093365 159.41658267 -107.59301758 159.49609375 C-107.77864258 160.70265625 -107.77864258 160.70265625 -107.96801758 161.93359375 C-108.17426758 162.77921875 -108.38051758 163.62484375 -108.59301758 164.49609375 C-109.25301758 164.82609375 -109.91301758 165.15609375 -110.59301758 165.49609375 C-110.65104508 170.07937397 -110.68662351 174.66255979 -110.71801758 179.24609375 C-110.7431543 181.19902344 -110.7431543 181.19902344 -110.76879883 183.19140625 C-110.77524414 184.44179687 -110.78168945 185.6921875 -110.78833008 186.98046875 C-110.79880371 188.13256836 -110.80927734 189.28466797 -110.82006836 190.47167969 C-110.5959624 193.45686743 -109.9928602 194.92452266 -108.59301758 197.49609375 C-107.71789268 197.49276283 -107.71789268 197.49276283 -106.8250885 197.48936462 C-100.60898468 197.46679185 -94.39289293 197.45197729 -88.17675781 197.44116211 C-85.87401861 197.43621273 -83.5712824 197.42945157 -81.26855469 197.4206543 C-67.06311195 197.36784596 -52.91539051 197.60815876 -38.72412109 198.23999023 C-28.66439349 198.68047819 -18.59725148 198.85451019 -8.53051758 199.05859375 C-6.47647658 199.10199929 -4.42244009 199.14561857 -2.3684082 199.18945312 C2.55667402 199.29410938 7.48180651 199.39594797 12.40698242 199.49609375 C14.12978051 203.25904748 14.69409253 206.32717219 14.82104492 210.453125 C14.8597168 211.56494141 14.89838867 212.67675781 14.93823242 213.82226562 C14.98463867 215.54799805 14.98463867 215.54799805 15.03198242 217.30859375 C15.0706543 218.47841797 15.10932617 219.64824219 15.14916992 220.85351562 C15.24323372 223.73421939 15.32888119 226.61492029 15.40698242 229.49609375 C14.82130053 229.50032569 14.23561863 229.50455763 13.6321888 229.50891781 C-0.60547198 229.61213173 -14.84308284 229.72075549 -29.08065605 229.83543301 C-35.96578132 229.89075866 -42.85091177 229.94423957 -49.73608398 229.9934082 C-56.3755996 230.04082769 -63.01506202 230.09334758 -69.65451431 230.1490345 C-72.19273693 230.16947866 -74.7309741 230.18818826 -77.26922226 230.20516777 C-80.81324296 230.22916619 -84.35716264 230.25922697 -87.90112305 230.29077148 C-89.48931351 230.29940468 -89.48931351 230.29940468 -91.10958862 230.30821228 C-92.55253296 230.32289551 -92.55253296 230.32289551 -94.02462769 230.33787537 C-94.8634593 230.34432792 -95.70229092 230.35078047 -96.56654167 230.35742855 C-98.66203056 230.37013761 -98.66203056 230.37013761 -100.59301758 231.49609375 C-101.61579219 243.00230811 -95.52816455 251.87009189 -88.59301758 260.49609375 C-88.07094727 261.18316406 -87.54887695 261.87023437 -87.01098633 262.578125 C-73.40493609 279.49096214 -51.83063282 289.53384786 -31.55639648 295.86987305 C-30.17167792 296.31152974 -28.79419007 296.77617759 -27.42260742 297.25708008 C0.12204323 306.88609941 31.7381885 302.47346854 60.40698242 301.49609375 C60.39650879 302.43928467 60.38603516 303.38247559 60.37524414 304.35424805 C60.34107601 307.86729393 60.31604162 311.38016215 60.29711914 314.89331055 C60.28708697 316.41124261 60.27345804 317.92915548 60.25610352 319.44702148 C60.23173207 321.63400015 60.22047147 323.82072239 60.21166992 326.0078125 C60.20119629 327.32225342 60.19072266 328.63669434 60.17993164 329.9909668 C60.39492267 333.30991964 60.96472419 335.52923382 62.40698242 338.49609375 C52.79890397 343.97835028 43.11296244 346.9708164 32.40698242 349.49609375 C31.37661865 349.74601074 31.37661865 349.74601074 30.32543945 350.00097656 C9.39093149 354.91776107 -11.17718427 352.49921838 -32.07348633 348.78515625 C-37.73423825 347.78125784 -43.37507924 347.00498787 -49.08813477 346.37597656 C-74.51539277 343.57371856 -74.51539277 343.57371856 -81.59301758 336.49609375 C-83.05573708 335.89211368 -84.53853399 335.33615915 -86.03051758 334.80859375 C-114.11350305 323.80038485 -137.45381713 296.34733555 -149.40551758 269.37109375 C-153.56468228 259.62531784 -155.89874925 250.8214044 -156.08911133 240.1484375 C-156.33854492 238.83552734 -156.33854492 238.83552734 -156.59301758 237.49609375 C-159.3406679 235.71521982 -161.57262853 235.23721207 -164.81079102 235.17724609 C-165.63133972 235.1573764 -166.45188843 235.13750671 -167.29730225 235.11703491 C-168.17348206 235.1054837 -169.04966187 235.0939325 -169.95239258 235.08203125 C-170.85677063 235.0626651 -171.76114868 235.04329895 -172.69293213 235.02334595 C-175.57619857 234.96365544 -178.45950515 234.91720689 -181.34301758 234.87109375 C-183.30006606 234.83290428 -185.25709791 234.79385198 -187.21411133 234.75390625 C-192.00694469 234.6579625 -196.79985673 234.57389248 -201.59301758 234.49609375 C-201.71362549 233.46053345 -201.71362549 233.46053345 -201.83666992 232.40405273 C-202.20783514 229.246501 -202.5878509 226.09007384 -202.96801758 222.93359375 C-203.0943457 221.84755859 -203.22067383 220.76152344 -203.35083008 219.64257812 C-204.02809853 214.07204511 -204.83297277 208.82979475 -206.59301758 203.49609375 C-197.70826688 202.5429449 -188.83353385 202.19533409 -179.90551758 201.93359375 C-178.51032597 201.89027288 -177.11514356 201.84665497 -175.7199707 201.80273438 C-172.34439798 201.69761273 -168.96876364 201.59546498 -165.59301758 201.49609375 C-165.59825439 200.56224854 -165.60349121 199.62840332 -165.60888672 198.66625977 C-165.62589378 195.21296579 -165.6384506 191.75971608 -165.64794922 188.30639648 C-165.65298879 186.80964457 -165.65982045 185.31289759 -165.66845703 183.81616211 C-165.68053917 181.66909568 -165.68624949 179.52209413 -165.69067383 177.375 C-165.69591064 176.08150635 -165.70114746 174.7880127 -165.70654297 173.45532227 C-165.59301758 170.49609375 -165.59301758 170.49609375 -164.59301758 169.49609375 C-164.42635091 166.99609375 -164.42635091 166.99609375 -164.59301758 164.49609375 C-165.74970259 163.1118831 -165.74970259 163.1118831 -168.91943359 163.38256836 C-170.39527314 163.38272746 -171.87111826 163.38842061 -173.34692383 163.3984375 C-174.12237045 163.39985245 -174.89781708 163.4012674 -175.69676208 163.40272522 C-178.18305252 163.4083403 -180.66925418 163.42089529 -183.15551758 163.43359375 C-184.83715691 163.43860681 -186.51879764 163.44317005 -188.20043945 163.44726562 C-192.33133324 163.45831462 -196.46216034 163.4755893 -200.59301758 163.49609375 C-200.61807373 162.6239624 -200.64312988 161.75183105 -200.66894531 160.85327148 C-200.76459121 157.58981612 -200.86379114 154.32650767 -200.96533203 151.06323242 C-201.00840416 149.65604818 -201.05009622 148.24882093 -201.09033203 146.84155273 C-201.14871328 144.80829967 -201.21220443 142.77525758 -201.27661133 140.7421875 C-201.31326904 139.52200928 -201.34992676 138.30183105 -201.38769531 137.04467773 C-201.59382844 133.48207964 -202.03770073 130.01968787 -202.59301758 126.49609375 C-201.65506348 126.47627441 -200.71710938 126.45645508 -199.75073242 126.43603516 C-196.25048057 126.35765515 -192.75063594 126.27095294 -189.25073242 126.17871094 C-187.73974458 126.14057263 -186.22867062 126.10569403 -184.7175293 126.07421875 C-182.5376928 126.0282367 -180.35844138 125.9703005 -178.17895508 125.91015625 C-176.86975098 125.87873535 -175.56054688 125.84731445 -174.21166992 125.81494141 C-170.53630867 125.491097 -167.88605153 125.17233869 -164.59301758 123.49609375 C-163.16896249 121.19222679 -162.24167978 119.32595633 -161.30395508 116.8359375 C-161.03338287 116.17203506 -160.76281067 115.50813263 -160.48403931 114.82411194 C-159.62428396 112.70170262 -158.79571674 110.56868136 -157.96801758 108.43359375 C-157.40498726 107.02456017 -156.83990202 105.61634587 -156.27270508 104.20898438 C-155.18424943 101.50325253 -154.10375399 98.7945706 -153.02929688 96.08325195 C-150.24825012 89.13748959 -147.20890687 82.44945376 -143.53051758 75.93359375 C-143.14839111 75.25522461 -142.76626465 74.57685547 -142.37255859 73.87792969 C-138.67028818 67.42847807 -134.51182723 61.33732893 -130.22583008 55.265625 C-128.5569132 52.90062419 -126.94417592 50.51710639 -125.39770508 48.0703125 C-124.7402832 47.03519531 -124.08286133 46.00007813 -123.40551758 44.93359375 C-122.85508789 44.04542969 -122.3046582 43.15726563 -121.73754883 42.2421875 C-115.75550292 34.58211779 -107.96985308 30.12790842 -99.53051758 25.55859375 C-98.41942627 24.94886719 -97.30833496 24.33914062 -96.16357422 23.7109375 C-93.96407783 22.50617293 -91.76224223 21.30566715 -89.55786133 20.10986328 C-87.08953561 18.76634936 -84.63467688 17.40360434 -82.18676758 16.0234375 C-58.6265681 2.86094023 -27.05584703 -5.25781643 0 0 Z " fill="#FCFCFC" transform="translate(330.593017578125,62.50390625)"/>
<path d="M0 0 C1.74216797 0.05414063 1.74216797 0.05414063 3.51953125 0.109375 C4.39996094 0.15578125 5.28039062 0.2021875 6.1875 0.25 C6.6825 1.735 6.6825 1.735 7.1875 3.25 C6.8575 3.91 6.5275 4.57 6.1875 5.25 C7.1775 4.92 8.1675 4.59 9.1875 4.25 C8.61397107 8.12132028 6.70045648 10.33172796 4.1875 13.25 C4.6825 14.24 4.6825 14.24 5.1875 15.25 C6.8375 13.93 8.4875 12.61 10.1875 11.25 C10.7220256 12.49420647 11.23958611 13.74570936 11.75 15 C12.04003906 15.69609375 12.33007812 16.3921875 12.62890625 17.109375 C13.31624961 19.74339012 13.33314749 20.76776378 12.1875 23.25 C9.68359375 25.609375 9.68359375 25.609375 6.625 28 C5.61308594 28.79921875 4.60117188 29.5984375 3.55859375 30.421875 C2.38490234 31.32679688 2.38490234 31.32679688 1.1875 32.25 C-0.33203125 31.07421875 -0.33203125 31.07421875 -1.8125 29.25 C-1.88671875 26.76953125 -1.88671875 26.76953125 -1.5 24.0625 C-1.38011719 23.16144531 -1.26023438 22.26039063 -1.13671875 21.33203125 C-1.02972656 20.64496094 -0.92273438 19.95789063 -0.8125 19.25 C-1.96878906 19.37568359 -1.96878906 19.37568359 -3.1484375 19.50390625 C-4.15132812 19.60574219 -5.15421875 19.70757812 -6.1875 19.8125 C-7.18523437 19.91691406 -8.18296875 20.02132813 -9.2109375 20.12890625 C-11.8125 20.25 -11.8125 20.25 -13.8125 19.25 C-14.38484375 19.39308594 -14.9571875 19.53617187 -15.546875 19.68359375 C-18.43537468 20.40571867 -21.08893312 20.34482138 -24.0625 20.3125 C-25.14015625 20.30347656 -26.2178125 20.29445313 -27.328125 20.28515625 C-28.14796875 20.27355469 -28.9678125 20.26195312 -29.8125 20.25 C-26.65788399 15.91535306 -23.09834718 12.89617578 -18.875 9.6875 C-17.65744658 8.74883475 -16.43999685 7.81003499 -15.22265625 6.87109375 C-14.63653564 6.42846191 -14.05041504 5.98583008 -13.4465332 5.52978516 C-12.00418302 4.40012735 -10.64252952 3.16904901 -9.296875 1.92578125 C-6.03348789 -0.27546572 -3.89401575 -0.15733397 0 0 Z " fill="#0C0C0C" transform="translate(155.8125,306.75)"/>
<path d="M0 0 C-2.2948384 4.68000907 -4.89410199 9.14983939 -7.5625 13.625 C-8.05041016 14.49640625 -8.53832031 15.3678125 -9.04101562 16.265625 C-12.79148829 22.46999207 -12.79148829 22.46999207 -16.26904297 23.99511719 C-18.52531406 24.49527808 -20.70204895 24.77854243 -23 25 C-24.33845385 25.31213808 -25.67383872 25.63918821 -27 26 C-25.69673271 22.49359039 -24.17508686 19.44074136 -22.125 16.3125 C-21.63257813 15.54550781 -21.14015625 14.77851563 -20.6328125 13.98828125 C-18.8980589 11.87586598 -17.50972496 11.01584106 -15 10 C-15.495 8.515 -15.495 8.515 -16 7 C-21.12355144 8.3373644 -22.99847446 11.41845249 -25.5625 15.75 C-26.31337316 16.97422152 -27.06467185 18.19818214 -27.81640625 19.421875 C-29.19892934 21.68175683 -30.56930668 23.94769435 -31.93359375 26.21875 C-34.19718774 29.26540202 -36.25840825 30.80860714 -39.5 32.75 C-40.4384375 33.32234375 -41.376875 33.8946875 -42.34375 34.484375 C-44.53480246 35.73456376 -46.72770346 36.90672525 -49 38 C-46.47340772 28.23050984 -41.11865257 17.30370762 -32.5625 11.4375 C-31.06050332 10.59068463 -29.53907586 9.77739036 -28 9 C-27.24203125 8.56558594 -26.4840625 8.13117188 -25.703125 7.68359375 C-17.96254556 3.44651187 -8.88024814 0 0 0 Z " fill="#EFEFEF" transform="translate(312,128)"/>
<path d="M0 0 C6.30531475 0.32613697 9.51089048 1.1976968 14 6 C17.61944001 11.91175202 18.01282638 18.18030236 17 25 C14.9375 28.3125 14.9375 28.3125 12 30 C6.9189057 30 3.43797564 28.2970113 -1 26 C-1.0292483 22.79168609 -1.04688189 19.58340693 -1.0625 16.375 C-1.07087891 15.47136719 -1.07925781 14.56773437 -1.08789062 13.63671875 C-1.10491895 8.97095711 -0.96829423 4.58986715 0 0 Z " fill="#F7F6F6" transform="translate(401,370)"/>
<path d="M0 0 C-3.72183598 3.77035153 -7.54205316 7.4098104 -11.4375 11 C-11.98470703 11.50789062 -12.53191406 12.01578125 -13.09570312 12.5390625 C-14.19170931 13.55076052 -15.29687419 14.55262999 -16.41113281 15.54418945 C-17.90557345 16.91348103 -19.30685272 18.38250266 -20.69921875 19.85546875 C-25.53169434 22.99514816 -29.74904515 22.54842714 -35.375 22.3125 C-36.39722656 22.28994141 -37.41945313 22.26738281 -38.47265625 22.24414062 C-40.98329581 22.18548082 -43.49087379 22.10345928 -46 22 C-42.61512524 17.5983998 -39.26267332 14.46850406 -34.5 11.5625 C-33.58250977 10.99607788 -33.58250977 10.99607788 -32.64648438 10.41821289 C-31.38380613 9.64561895 -30.11751161 8.8789039 -28.84765625 8.11816406 C-27.10840097 7.06560207 -25.39678952 5.96774419 -23.6875 4.8671875 C-15.65653749 0.00530579 -9.30957133 -0.87931483 0 0 Z " fill="#F3F3F3" transform="translate(308,228)"/>
<path d="M0 0 C-0.99 0.33 -1.98 0.66 -3 1 C-3 1.66 -3 2.32 -3 3 C-3.66 3 -4.32 3 -5 3 C-5 3.66 -5 4.32 -5 5 C-4.2265625 4.65066406 -3.453125 4.30132812 -2.65625 3.94140625 C3.32178877 1.32971357 8.47271928 -0.62342611 15 -1 C10.88967035 3.61685513 6.3505168 6.33160192 0.9375 9.25 C0.13505859 9.69601562 -0.66738281 10.14203125 -1.49414062 10.6015625 C-7.5225743 13.90344319 -7.5225743 13.90344319 -10.19702148 14.44433594 C-10.79200439 14.62770508 -11.3869873 14.81107422 -12 15 C-12.33 15.99 -12.66 16.98 -13 18 C-16.96 18 -20.92 18 -25 18 C-25 17.01 -25 16.02 -25 15 C-25.69480469 15.32742188 -26.38960938 15.65484375 -27.10546875 15.9921875 C-30.36368828 17.12662831 -32.87449502 17.20056055 -36.3125 17.125 C-37.38113281 17.10695313 -38.44976562 17.08890625 -39.55078125 17.0703125 C-40.35902344 17.04710937 -41.16726563 17.02390625 -42 17 C-39.80758451 14.56100794 -37.8552962 13.30747202 -34.83203125 12.0625 C-34.02056641 11.72476562 -33.20910156 11.38703125 -32.37304688 11.0390625 C-31.52806641 10.69617188 -30.68308594 10.35328125 -29.8125 10 C-28.98685547 9.65710938 -28.16121094 9.31421875 -27.31054688 8.9609375 C-23.42701128 7.35733415 -19.53012791 5.8102906 -15.58984375 4.3515625 C-12.00505056 3.07252271 -12.00505056 3.07252271 -8.75 1.375 C-3 -1.5 -3 -1.5 0 0 Z " fill="#0D0D0D" transform="translate(323,304)"/>
<path d="M0 0 C-0.33 1.65 -0.66 3.3 -1 5 C1.9719385 3.87548273 4.33440687 2.77706209 7 1 C9.04296875 0.8046875 9.04296875 0.8046875 11.1875 0.875 C13.0746875 0.936875 13.0746875 0.936875 15 1 C10.3605797 4.6530015 5.2040869 7.24700928 0 10 C-0.78890625 10.42152344 -1.5778125 10.84304688 -2.390625 11.27734375 C-7.6227758 14 -7.6227758 14 -11 14 C-11 14.66 -11 15.32 -11 16 C-18.20305214 16.61042815 -18.20305214 16.61042815 -21.9375 13.75 C-23.84096596 11.21204538 -24.39464941 9.98214819 -25 7 C-18.28986044 -1.91652444 -10.12211902 -0.7246517 0 0 Z " fill="#303030" transform="translate(270,302)"/>
<path d="M0 0 C4.29 0 8.58 0 13 0 C11.9254319 3.22370429 11.3944369 3.74568921 8.875 5.8125 C5.9243289 8.24246443 3.24986306 10.76704417 0.66015625 13.5703125 C-9.92949282 24.73153382 -9.92949282 24.73153382 -17.40209961 24.96899414 C-20.30761282 24.83481847 -23.13776539 24.51154831 -26 24 C-22.09333711 20.04154423 -18.07557605 16.22134144 -14 12.4375 C-13.39671875 11.87353516 -12.7934375 11.30957031 -12.171875 10.72851562 C-2.77978801 2 -2.77978801 2 0 2 C0 1.34 0 0.68 0 0 Z " fill="#EEEEEE" transform="translate(315,227)"/>
<path d="M0 0 C0.08131463 1.43655854 0.13933559 2.8744483 0.1875 4.3125 C0.23970703 5.51326172 0.23970703 5.51326172 0.29296875 6.73828125 C-0.06198392 9.47851584 -0.89366282 10.29171079 -3 12 C-1.68 12.33 -0.36 12.66 1 13 C1 15.64 1 18.28 1 21 C-5.27 21 -11.54 21 -18 21 C-17.34 19.35 -16.68 17.7 -16 16 C-16.144375 14.700625 -16.28875 13.40125 -16.4375 12.0625 C-16.51171875 9.99609375 -16.51171875 9.99609375 -16 8 C-13.30915997 5.4224585 -10.29242352 3.71162415 -7 2 C-6.30390625 1.61585938 -5.6078125 1.23171875 -4.890625 0.8359375 C-3 0 -3 0 0 0 Z " fill="#1C1C1C" transform="translate(154,235)"/>
<path d="M0 0 C5.28 0 10.56 0 16 0 C14.31711965 2.65895095 12.62949115 5.31505545 10.9140625 7.953125 C9.00255194 10.9017625 9.00255194 10.9017625 7.5859375 13.734375 C6.22347966 16.23619816 5.13367738 18.10441537 3 20 C-0.779816 20.74339871 -4.20281612 20.54728095 -8 20 C-7.3835721 15.823701 -5.94564843 12.60727751 -4 8.875 C-2.4616925 5.90932064 -1.05677648 3.17032944 0 0 Z " fill="#F3F3F3" transform="translate(349,126)"/>
<path d="M0 0 C3.96 0 7.92 0 12 0 C11.19586939 3.21652242 10.45983637 5.27185351 8.93359375 8.109375 C8.53076172 8.86347656 8.12792969 9.61757812 7.71289062 10.39453125 C7.08157227 11.56048828 7.08157227 11.56048828 6.4375 12.75 C6.01275391 13.54277344 5.58800781 14.33554688 5.15039062 15.15234375 C4.10419408 17.10367662 3.05261862 19.05212392 2 21 C-1.96 21 -5.92 21 -10 21 C-9.04903812 16.24519059 -7.57271878 13.31503785 -5 9.375 C-2.09316341 4.89917129 -2.09316341 4.89917129 0 0 Z " fill="#EFEFEF" transform="translate(333,126)"/>
<path d="M0 0 C0.79921875 0.00902344 1.5984375 0.01804687 2.421875 0.02734375 C3.02515625 0.03894531 3.6284375 0.05054687 4.25 0.0625 C2.82338695 2.67795727 1.39248022 5.28902483 -0.06640625 7.88671875 C-1.78949642 11.00725891 -1.78949642 11.00725891 -3.02734375 14.20703125 C-4.35850404 17.29419021 -5.44997633 19.59980275 -7.75 22.0625 C-12.14345303 23.28552814 -16.2177627 23.35164867 -20.75 23.0625 C-15.16166201 12.44273743 -15.16166201 12.44273743 -11.9375 8.125 C-10.00833163 5.42416428 -9.37211588 4.15970054 -8.75 1.0625 C-5.75519083 0.1901588 -3.11424089 -0.04579766 0 0 Z " fill="#ECEBEC" transform="translate(324.75,125.9375)"/>
<path d="M0 0 C2.40259121 1.47385848 3.887324 2.85386691 5.63671875 5.05078125 C6.14847656 5.68242187 6.66023438 6.3140625 7.1875 6.96484375 C7.56261719 7.44695312 7.93773437 7.9290625 8.32421875 8.42578125 C7.16792969 9.25722656 7.16792969 9.25722656 5.98828125 10.10546875 C4.98539063 10.82992188 3.9825 11.554375 2.94921875 12.30078125 C1.95148438 13.02007812 0.95375 13.739375 -0.07421875 14.48046875 C-2.67048019 16.32524705 -2.67048019 16.32524705 -4.67578125 18.42578125 C-8.55123281 18.16907399 -10.6713423 15.91518792 -13.42578125 13.36328125 C-14.225 12.62980469 -15.02421875 11.89632813 -15.84765625 11.140625 C-16.4509375 10.57472656 -17.05421875 10.00882812 -17.67578125 9.42578125 C-15.0803953 6.53505828 -12.10294961 4.63493295 -8.80078125 2.61328125 C-7.77210938 1.96746094 -6.7434375 1.32164062 -5.68359375 0.65625 C-2.67578125 -0.57421875 -2.67578125 -0.57421875 0 0 Z " fill="#F1F1F1" transform="translate(204.67578125,381.57421875)"/>
<path d="M0 0 C-3.5535549 3.712373 -7.30583301 6.87669486 -11.4375 9.9375 C-15.00321982 12.58547322 -18.28583482 15.12507173 -21.0625 18.625 C-25.62809297 22.31633049 -30.35010221 21.49368039 -36 21 C-36 19.68 -36 18.36 -36 17 C-33.91025961 15.37701915 -31.95718584 14.0722522 -29.6875 12.75 C-24.95132509 9.89536025 -20.60902623 6.94321633 -16.3125 3.4375 C-10.94855129 -0.5934436 -6.53229462 -0.90971995 0 0 Z " fill="#EAEAEA" transform="translate(265,229)"/>
<path d="M0 0 C1.12329712 0.07069702 1.12329712 0.07069702 2.26928711 0.14282227 C3.48261719 0.21533203 3.48261719 0.21533203 4.72045898 0.28930664 C5.99566406 0.37341797 5.99566406 0.37341797 7.29663086 0.45922852 C8.57763672 0.53753906 8.57763672 0.53753906 9.88452148 0.61743164 C12.00135081 0.74751612 14.1177833 0.88402822 16.23413086 1.02172852 C16.23413086 1.68172852 16.23413086 2.34172852 16.23413086 3.02172852 C13.96832721 4.58057777 11.70815538 6.03648274 9.35913086 7.45922852 C4.17956636 10.52729846 4.17956636 10.52729846 0.23413086 15.02172852 C-4.7350355 14.50767682 -9.05613265 13.7878797 -13.76586914 12.02172852 C-13.76586914 11.36172852 -13.76586914 10.70172852 -13.76586914 10.02172852 C-12.0053405 8.44102323 -10.18167116 6.93006566 -8.32836914 5.45922852 C-7.3190332 4.65356445 -6.30969727 3.84790039 -5.26977539 3.01782227 C-4.44348633 2.35911133 -3.61719727 1.70040039 -2.76586914 1.02172852 C-1.76586914 0.02172852 -1.76586914 0.02172852 0 0 Z " fill="#ECECEC" transform="translate(268.765869140625,417.978271484375)"/>
<path d="M0 0 C1.45019531 0.04060547 1.45019531 0.04060547 2.9296875 0.08203125 C3.65414062 0.11683594 4.37859375 0.15164063 5.125 0.1875 C1.8584165 3.71863075 -2.07256168 6.46102295 -5.90600586 9.33544922 C-8.98862481 11.6667412 -11.75279884 14.02121021 -14.4375 16.8125 C-17.52319371 19.60058873 -20.23258813 19.54347943 -24.3125 19.5625 C-26.16841261 19.46685788 -28.02388744 19.35163806 -29.875 19.1875 C-26.72499875 14.8777968 -23.1830743 11.79527929 -19 8.5625 C-18.40058594 8.08554687 -17.80117187 7.60859375 -17.18359375 7.1171875 C-11.7454034 2.87044449 -7.14637243 -0.26145265 0 0 Z " fill="#F2F2F2" transform="translate(155.875,307.8125)"/>
<path d="M0 0 C-3.29801121 3.69676319 -6.89912699 5.84798842 -11.1875 8.1875 C-15.34462481 10.25745719 -15.34462481 10.25745719 -19 13 C-21.14394519 13.0991757 -23.29126732 13.1297015 -25.4375 13.125 C-26.61183594 13.12757813 -27.78617187 13.13015625 -28.99609375 13.1328125 C-32 13 -32 13 -34 12 C-34 11.34 -34 10.68 -34 10 C-31.41732587 8.54048881 -28.83389259 7.08235119 -26.25 5.625 C-25.52039063 5.2125 -24.79078125 4.8 -24.0390625 4.375 C-23.33007812 3.97539062 -22.62109375 3.57578125 -21.890625 3.1640625 C-20.91657715 2.61419678 -20.91657715 2.61419678 -19.92285156 2.05322266 C-19.28831055 1.70565918 -18.65376953 1.3580957 -18 1 C-17.33967773 0.6292334 -16.67935547 0.2584668 -15.99902344 -0.12353516 C-11.14550678 -2.25154258 -5.03582611 -1.00716522 0 0 Z " fill="#EBEBEB" transform="translate(325,425)"/>
<path d="M0 0 C2.30047725 0.23915853 4.59870666 0.5277672 6.875 0.9375 C2.77035458 5.88412397 -1.56416622 10.43954605 -6.171875 14.921875 C-8.28369734 16.9798402 -8.28369734 16.9798402 -10.125 19.9375 C-12.2890625 20.23046875 -12.2890625 20.23046875 -14.75 20.125 C-15.97589844 20.08439453 -15.97589844 20.08439453 -17.2265625 20.04296875 C-17.85304688 20.00816406 -18.47953125 19.97335938 -19.125 19.9375 C-16.9425142 10.03300249 -11.08412754 -0.58351347 0 0 Z " fill="#F2F2F2" transform="translate(377.125,126.0625)"/>
<path d="M0 0 C-0.5861979 2.02504728 -1.28228718 4.01774554 -2 6 C-2.2371875 6.80824219 -2.474375 7.61648437 -2.71875 8.44921875 C-4.49044571 13.22851079 -5.90444214 15.4492146 -10.55859375 17.7890625 C-20.57890331 21.4736989 -20.57890331 21.4736989 -25 20 C-19.85250535 10.05907118 -15.61441721 4.66582023 -4.94140625 0.8203125 C-2 0 -2 0 0 0 Z " fill="#F1F1F1" transform="translate(173,144)"/>
<path d="M0 0 C-3.32184579 3.78161684 -7.74234106 5.77549746 -12.08984375 8.18359375 C-15.03586319 9.85981038 -15.03586319 9.85981038 -17.1328125 12.203125 C-19 14 -19 14 -22.9375 14.3125 C-26.0288643 14.15648722 -28.99125225 13.75218694 -32 13 C-30.47707647 8.80725991 -27.79625632 7.23573451 -24.125 4.875 C-23.07570313 4.19179688 -22.02640625 3.50859375 -20.9453125 2.8046875 C-13.91625132 -1.50224388 -8.09108119 -2.08802095 0 0 Z " fill="#F2F2F2" transform="translate(305,422)"/>
<path d="M0 0 C0.70189453 0.00451172 1.40378906 0.00902344 2.12695312 0.01367188 C3.85550538 0.02543073 5.58401365 0.04336546 7.3125 0.0625 C6.3125 2.0625 6.3125 2.0625 4.5534668 2.83691406 C3.79718994 3.08151367 3.04091309 3.32611328 2.26171875 3.578125 C1.42302246 3.85712646 0.58432617 4.13612793 -0.27978516 4.42358398 C-1.17745605 4.71692627 -2.07512695 5.01026855 -3 5.3125 C-10.19699643 7.73135171 -16.88816569 10.37107643 -23.5703125 13.99609375 C-25.6875 15.0625 -25.6875 15.0625 -27.6875 15.0625 C-27.6875 15.7225 -27.6875 16.3825 -27.6875 17.0625 C-31.3175 17.0625 -34.9475 17.0625 -38.6875 17.0625 C-38.6875 16.4025 -38.6875 15.7425 -38.6875 15.0625 C-37.88481689 14.71964966 -37.88481689 14.71964966 -37.06591797 14.36987305 C-31.16114431 11.80255243 -25.4830567 8.9204646 -19.8125 5.875 C-18.14955465 4.98358988 -16.48553735 4.0941758 -14.8203125 3.20703125 C-14.09730957 2.81878174 -13.37430664 2.43053223 -12.62939453 2.03051758 C-8.39817513 -0.07870859 -4.61182981 -0.05597926 0 0 Z " fill="#E8E8E8" transform="translate(302.6875,302.9375)"/>
<path d="M0 0 C3.3 0 6.6 0 10 0 C10 0.66 10 1.32 10 2 C8.64426905 2.99461074 7.23645143 3.91828567 5.8125 4.8125 C1.0438904 8.03932738 -2.96149779 11.67872417 -7 15.75 C-7.56356201 16.3169458 -8.12712402 16.8838916 -8.70776367 17.46801758 C-11.06605186 19.88012339 -13.12404913 22.18607369 -15 25 C-17.1640625 25.29296875 -17.1640625 25.29296875 -19.625 25.1875 C-20.85089844 25.14689453 -20.85089844 25.14689453 -22.1015625 25.10546875 C-22.72804688 25.07066406 -23.35453125 25.03585938 -24 25 C-20.33187082 20.50654176 -16.57536143 16.65790905 -12.1640625 12.90234375 C-5.24090263 7.13456648 -5.24090263 7.13456648 0 0 Z " fill="#D5D5D5" transform="translate(334,226)"/>
<path d="M0 0 C0.8559375 0.04511719 1.711875 0.09023437 2.59375 0.13671875 C3.2228125 0.19472656 3.851875 0.25273437 4.5 0.3125 C3.05237643 3.20774714 1.053884 3.55361403 -1.875 4.875 C-9.34763956 8.51323024 -16.57310821 13.2448118 -21.484375 20.0703125 C-23.5 22.3125 -23.5 22.3125 -26.078125 22.80078125 C-26.95984375 22.74277344 -27.8415625 22.68476563 -28.75 22.625 C-29.64203125 22.57988281 -30.5340625 22.53476563 -31.453125 22.48828125 C-32.12859375 22.43027344 -32.8040625 22.37226563 -33.5 22.3125 C-30.19657476 17.68089348 -26.2853324 14.63391444 -21.75 11.3125 C-21.07195312 10.80460938 -20.39390625 10.29671875 -19.6953125 9.7734375 C-5.95586942 -0.41360204 -5.95586942 -0.41360204 0 0 Z " fill="#E3E3E3" transform="translate(280.5,227.6875)"/>
<path d="M0 0 C0 0.99 0 1.98 0 3 C0.66 3 1.32 3 2 3 C0.89039427 6.32881718 0.42884616 6.66368778 -2.37890625 8.48046875 C-3.05244141 8.92197266 -3.72597656 9.36347656 -4.41992188 9.81835938 C-5.48049805 10.49608398 -5.48049805 10.49608398 -6.5625 11.1875 C-7.27341797 11.65091797 -7.98433594 12.11433594 -8.71679688 12.59179688 C-10.47312496 13.73517825 -12.2359605 14.86855228 -14 16 C-14.33 15.01 -14.66 14.02 -15 13 C-15.66 12.67 -16.32 12.34 -17 12 C-17 8.37 -17 4.74 -17 1 C-11.29309366 0.00749455 -5.78591511 -0.10477512 0 0 Z " fill="#2B2B2B" transform="translate(245,230)"/>
<path d="M0 0 C3 1 3 1 4.16796875 2.99609375 C4.50441406 3.80175781 4.84085938 4.60742188 5.1875 5.4375 C5.53167969 6.24058594 5.87585938 7.04367187 6.23046875 7.87109375 C7 10 7 10 7 12 C5.26451831 13.44526736 3.46024037 14.8087222 1.625 16.125 C0.62726563 16.84945313 -0.37046875 17.57390625 -1.3984375 18.3203125 C-4 20 -4 20 -6 20 C-6.72750788 18.59308393 -7.43140353 17.17393978 -8.125 15.75 C-8.51945313 14.96109375 -8.91390625 14.1721875 -9.3203125 13.359375 C-10 11 -10 11 -9.36328125 8.94140625 C-7.79264459 6.70471164 -6.10992488 4.99853691 -4.0625 3.1875 C-3.02802734 2.24970703 -3.02802734 2.24970703 -1.97265625 1.29296875 C-1.32167969 0.86628906 -0.67070312 0.43960937 0 0 Z " fill="#ECECEC" transform="translate(169,333)"/>
<path d="M0 0 C2.11924028 0.77063283 4.07572958 1.6856587 6.0625 2.75 C4.54696596 6.22775179 2.4851544 8.7057984 -0.0625 11.5 C-1.14917969 12.69882812 -1.14917969 12.69882812 -2.2578125 13.921875 C-2.81210938 14.52515625 -3.36640625 15.1284375 -3.9375 15.75 C-5.35541408 15.29554036 -6.77178046 14.83625056 -8.1875 14.375 C-8.97640625 14.11976563 -9.7653125 13.86453125 -10.578125 13.6015625 C-12.80377958 12.79826333 -14.84681672 11.85288338 -16.9375 10.75 C-16.9375 10.09 -16.9375 9.43 -16.9375 8.75 C-15.04762684 7.50766478 -13.0983747 6.35490256 -11.125 5.25 C-1.47715517 -0.19060067 -1.47715517 -0.19060067 0 0 Z " fill="#EEEEEE" transform="translate(241.9375,407.25)"/>
<path d="M0 0 C0.66 0 1.32 0 2 0 C4.6875 2.8125 4.6875 2.8125 7 6 C5.66043831 10.01868507 3.09035261 11.12247846 -0.375 13.1875 C-0.96539062 13.55552734 -1.55578125 13.92355469 -2.1640625 14.30273438 C-4.98898773 16.01741309 -6.63751052 17 -10 17 C-15 11.65116279 -15 11.65116279 -15 9 C-12.87767021 7.82823482 -10.75242209 6.66245215 -8.625 5.5 C-7.72007812 4.99919922 -7.72007812 4.99919922 -6.796875 4.48828125 C-2.2265625 2 -2.2265625 2 0 2 C0 1.34 0 0.68 0 0 Z " fill="#EBEBEB" transform="translate(193,370)"/>
<path d="M0 0 C-3.86584732 3.98366362 -7.94979499 7.60515584 -12.1875 11.1875 C-13.43160906 12.24275968 -14.67512494 13.2987192 -15.91796875 14.35546875 C-16.46219482 14.81590576 -17.0064209 15.27634277 -17.56713867 15.75073242 C-18.75472968 16.78615638 -19.88589157 17.88589157 -21 19 C-23.68839385 19.26991906 -26.29141936 19.08737357 -29 19 C-29 17 -29 17 -26.9375 14.8125 C-26.25107422 14.15701172 -26.25107422 14.15701172 -25.55078125 13.48828125 C-24.46400243 12.44530208 -23.40052914 11.3777464 -22.35546875 10.29296875 C-15.1343549 2.81104718 -10.78975254 -0.97693936 0 0 Z " fill="#E9E9E9" transform="translate(141,308)"/>
<path d="M0 0 C2.8125 1.5625 2.8125 1.5625 5 3 C1.32583472 7.0081803 -2.14346504 9.52591615 -7 12 C-7.66 12 -8.32 12 -9 12 C-9 12.66 -9 13.32 -9 14 C-12.40312738 12.94124926 -15.01353231 11.99097846 -18 10 C-16.49497101 6.03059606 -14.20667285 4.44948525 -10.6875 2.1875 C-9.74261719 1.56230469 -8.79773438 0.93710937 -7.82421875 0.29296875 C-4.57289912 -1.19553305 -3.33047074 -1.14379803 0 0 Z " fill="#F2F2F2" transform="translate(231,401)"/>
<path d="M0 0 C-7.29886238 6.05376232 -15.43944439 10.16797723 -24.1875 13.75 C-27.11115417 14.6925523 -27.11115417 14.6925523 -28 17 C-31.3 17 -34.6 17 -38 17 C-35.18276249 13.94850552 -32.49923449 11.97412247 -28.82421875 10.0546875 C-27.33438477 9.27544922 -27.33438477 9.27544922 -25.81445312 8.48046875 C-24.78255859 7.95066406 -23.75066406 7.42085938 -22.6875 6.875 C-21.66720703 6.33746094 -20.64691406 5.79992187 -19.59570312 5.24609375 C-5.34913209 -2.13965284 -5.34913209 -2.13965284 0 0 Z " fill="#E0E0E0" transform="translate(338,304)"/>
<path d="M0 0 C1.38666609 1.96339882 2.72531138 3.96212201 4 6 C1.75474054 7.17666004 -0.49544142 8.3414074 -2.75 9.5 C-3.38421875 9.83386719 -4.0184375 10.16773438 -4.671875 10.51171875 C-8.12010993 12.27175533 -10.04840069 13 -14 13 C-15.8125 11.25 -15.8125 11.25 -17 9 C-16.74936527 6.3070098 -16.35734037 5.2972495 -14.2578125 3.55078125 C-13.55398437 3.14214844 -12.85015625 2.73351562 -12.125 2.3125 C-11.42632812 1.89613281 -10.72765625 1.47976563 -10.0078125 1.05078125 C-6.28343962 -0.89835553 -3.96598642 -1.45097064 0 0 Z " fill="#EFEFEF" transform="translate(188,362)"/>
<path d="M0 0 C2.3129482 2.3129482 2.49580975 3.47904875 3.125 6.625 C3.29257813 7.44226563 3.46015625 8.25953125 3.6328125 9.1015625 C3.81457031 10.04128906 3.81457031 10.04128906 4 11 C2.40112446 12.48488441 0.79571095 13.96273145 -0.8125 15.4375 C-2.15248047 16.67306641 -2.15248047 16.67306641 -3.51953125 17.93359375 C-6 20 -6 20 -9 21 C-11.42250056 17.36624916 -11.47647683 15.71399185 -10.95703125 11.49609375 C-8.9976993 6.38583613 -4.23186958 3.24878554 0 0 Z " fill="#EAEAEA" transform="translate(165,318)"/>
<path d="M0 0 C0.81984082 6.85685048 0.81984082 6.85685048 -1.28027344 9.78515625 C-3.07075689 11.48065113 -4.91865227 12.99924009 -6.875 14.5 C-7.52597656 15.03625 -8.17695312 15.5725 -8.84765625 16.125 C-13.64198023 20 -13.64198023 20 -16 20 C-16 20.66 -16 21.32 -16 22 C-16.66 22 -17.32 22 -18 22 C-18.48849273 18.55125856 -18.63808535 15.43652724 -18 12 C-15.82506001 9.11020948 -13.13985742 7.32821532 -10.125 5.375 C-9.00544922 4.58416016 -9.00544922 4.58416016 -7.86328125 3.77734375 C-2.41801948 0 -2.41801948 0 0 0 Z " fill="#E6E6E6" transform="translate(120,201)"/>
<path d="M0 0 C1.73828125 0.83984375 1.73828125 0.83984375 3.73828125 2.83984375 C3.07183594 3.18015625 2.40539062 3.52046875 1.71875 3.87109375 C-6.0988795 7.98218283 -13.97356135 12.55168635 -20.26171875 18.83984375 C-13.66171875 19.16984375 -7.06171875 19.49984375 -0.26171875 19.83984375 C-0.26171875 20.16984375 -0.26171875 20.49984375 -0.26171875 20.83984375 C-3.88665209 20.89772159 -7.51146732 20.93339795 -11.13671875 20.96484375 C-12.16925781 20.98160156 -13.20179688 20.99835938 -14.265625 21.015625 C-15.25175781 21.02207031 -16.23789062 21.02851563 -17.25390625 21.03515625 C-18.62071533 21.0508667 -18.62071533 21.0508667 -20.01513672 21.06689453 C-22.26171875 20.83984375 -22.26171875 20.83984375 -24.26171875 18.83984375 C-24.92171875 19.16984375 -25.58171875 19.49984375 -26.26171875 19.83984375 C-23.11786823 12.55255947 -8.49272726 -0.60138483 0 0 Z " fill="#1B1B1B" transform="translate(283.26171875,230.16015625)"/>
<path d="M0 0 C-1.14323584 1.14323584 -2.2884136 2.28457371 -3.44140625 3.41796875 C-4.56381874 4.55725963 -5.65126758 5.73137795 -6.71484375 6.92578125 C-8.40316899 8.76926985 -10.02767203 10.46294441 -12 12 C-15.48651 12.08108163 -17.97956941 10.67801699 -21 9 C-20.67 8.01 -20.34 7.02 -20 6 C-19.34 6 -18.68 6 -18 6 C-17.79375 5.443125 -17.5875 4.88625 -17.375 4.3125 C-12.41558786 -4.02832951 -8.28444308 -3.48732485 0 0 Z " fill="#ECECEC" transform="translate(263,416)"/>
<path d="M0 0 C1.32 0.66 2.64 1.32 4 2 C4 2.66 4 3.32 4 4 C4.99 4.33 5.98 4.66 7 5 C6.34 5.66 5.68 6.32 5 7 C4.55140625 7.44988281 4.1028125 7.89976562 3.640625 8.36328125 C2.40606606 9.59490076 1.16543911 10.82044238 -0.078125 12.04296875 C-0.79484375 12.75066406 -1.5115625 13.45835937 -2.25 14.1875 C-2.93578125 14.86167969 -3.6215625 15.53585937 -4.328125 16.23046875 C-6.07449111 17.90798995 -6.07449111 17.90798995 -7 20 C-7.66 20 -8.32 20 -9 20 C-10.71836859 16.56326282 -11.06977461 13.63364783 -10 10 C-6.99179674 6.29111192 -3.59564101 3.1333443 0 0 Z " fill="#EFEFEF" transform="translate(117,303)"/>
<path d="M0 0 C0.66 0 1.32 0 2 0 C6 6.75 6 6.75 6 9 C3.8751956 10.1461973 1.75016569 11.29197292 -0.375 12.4375 C-0.97828125 12.76298828 -1.5815625 13.08847656 -2.203125 13.42382812 C-6.7734375 15.88671875 -6.7734375 15.88671875 -9 17 C-12 11.375 -12 11.375 -12 8 C-9.62890625 6.2109375 -9.62890625 6.2109375 -6.5625 4.375 C-3.09234338 2.43951068 -3.09234338 2.43951068 0 0 Z " fill="#ECECEC" transform="translate(177,348)"/>
<path d="M0 0 C-5.1851325 7.74092477 -9.78221324 10.86015665 -19 13 C-22.4375 13.125 -22.4375 13.125 -25 13 C-22.72630279 7.44068539 -17.93573309 4.15800199 -13 1 C-8.74775803 -0.38803754 -4.42905451 0 0 0 Z " fill="#F1F1F1" transform="translate(361,423)"/>
<path d="M0 0 C0.71321652 4.19284861 0.90895818 7.82661138 0 12 C-3.21007199 16.02038142 -6.78336053 19.02664424 -11 22 C-11.33 22 -11.66 22 -12 22 C-12.88197098 16.29658764 -13.30231682 11.82607466 -9.84375 6.9765625 C-2.88717765 0 -2.88717765 0 0 0 Z " fill="#F3F3F3" transform="translate(118,286)"/>
<path d="M0 0 C2.49361571 1.20381448 4.68143083 2.45428722 7 4 C7 4.66 7 5.32 7 6 C5.25588699 7.23662862 3.45293515 8.39102135 1.625 9.5 C-2.42943147 11.94216507 -2.42943147 11.94216507 -6 15 C-9.01305957 14.61121812 -10.39685311 13.73543126 -13 12 C-11.47236536 7.91403748 -8.88915809 6.20173821 -5.375 3.75 C-4.37210938 3.04359375 -3.36921875 2.3371875 -2.3359375 1.609375 C-1.56507813 1.07828125 -0.79421875 0.5471875 0 0 Z " fill="#F3F3F3" transform="translate(216,392)"/>
<path d="M0 0 C0.2475 0.804375 0.495 1.60875 0.75 2.4375 C1.72238859 5.171081 1.72238859 5.171081 4.125 5.8125 C4.74375 5.874375 5.3625 5.93625 6 6 C6 6.66 6 7.32 6 8 C4.20963542 9.00911458 2.41927083 10.01822917 0.62890625 11.02734375 C-0.97878146 11.8972513 -0.97878146 11.8972513 -2 13 C-4.52596259 13.23653523 -7.03107207 13.42173692 -9.5625 13.5625 C-10.27341797 13.60568359 -10.98433594 13.64886719 -11.71679688 13.69335938 C-13.47761912 13.79971777 -15.2387832 13.90038846 -17 14 C-5.85714286 0 -5.85714286 0 0 0 Z " fill="#E8E8E8" transform="translate(120,228)"/>
<path d="M0 0 C1.18239258 0.02707031 1.18239258 0.02707031 2.38867188 0.0546875 C4.32214261 0.10155952 6.25498285 0.1732959 8.1875 0.25 C5.31407933 3.42695103 2.74517039 5.14359366 -1.1875 6.8125 C-2.15042969 7.23015625 -3.11335938 7.6478125 -4.10546875 8.078125 C-4.99878906 8.46484375 -5.89210937 8.8515625 -6.8125 9.25 C-8.83091596 10.21883966 -10.82075793 11.22721353 -12.8125 12.25 C-13.8025 10.93 -14.7925 9.61 -15.8125 8.25 C-12.78060808 0.53245694 -7.43457929 -0.32405543 0 0 Z " fill="#F2F2F2" transform="translate(260.8125,302.75)"/>
<path d="M0 0 C0.33 0 0.66 0 1 0 C1.73813342 3.22094582 1.90430672 5.80014545 1 9 C-1.55374019 11.47475854 -4.23751003 13.28214012 -7.2265625 15.203125 C-9.51345803 16.68477563 -11.22840629 18.02140193 -13.0625 20 C-14.0215625 20.99 -14.0215625 20.99 -15 22 C-15.66 22 -16.32 22 -17 22 C-17.42682067 18.93159627 -17.66322416 16.96849987 -17 14 C-14.74389064 11.16779954 -11.98401683 9.17482865 -9.0625 7.0625 C-8.30775391 6.48693359 -7.55300781 5.91136719 -6.77539062 5.31835938 C-5.3863713 4.26071147 -3.98937886 3.21339843 -2.58227539 2.17993164 C-1.04366356 1.09170996 -1.04366356 1.09170996 0 0 Z " fill="#F0F0F0" transform="translate(119,214)"/>
<path d="M0 0 C-0.83376242 2.67118603 -1.49801697 4.68452379 -3 7 C-5.65356731 8.3735758 -7.625469 9.18528845 -10.4375 9.9375 C-11.10587891 10.14439453 -11.77425781 10.35128906 -12.46289062 10.56445312 C-15.80363082 11.56104658 -18.48631938 12 -22 12 C-21.39299868 7.40413286 -21.39299868 7.40413286 -20 5 C-17.15674242 3.42573317 -14.13323315 2.79827596 -11 2 C-9.5348019 1.43413039 -8.07580411 0.85181504 -6.625 0.25 C-3 -1 -3 -1 0 0 Z " fill="#E9E9E9" transform="translate(164,166)"/>
<path d="M0 0 C1.6026782 -0.10824843 3.20745748 -0.18570645 4.8125 -0.25 C5.70582031 -0.29640625 6.59914063 -0.3428125 7.51953125 -0.390625 C10 0 10 0 11.82421875 2.015625 C12.40623047 2.99789063 12.40623047 2.99789063 13 4 C10.3587447 5.44647391 7.71248464 6.88217356 5.0625 8.3125 C4.32708984 8.71662109 3.59167969 9.12074219 2.83398438 9.53710938 C-1.76315979 12.00631781 -6.23210183 13.87245576 -11.25219727 15.31323242 C-13.20689224 15.85635403 -13.20689224 15.85635403 -14 18 C-14.99 17.67 -15.98 17.34 -17 17 C-18.33106622 16.65772583 -19.66400079 16.32248257 -21 16 C-20.01 16 -19.02 16 -18 16 C-18 15.34 -18 14.68 -18 14 C-17.35675781 13.72027344 -16.71351563 13.44054687 -16.05078125 13.15234375 C-8.48110903 9.79404409 -1.24630239 5.99756269 6 2 C3.03 1.505 3.03 1.505 0 1 C0 0.67 0 0.34 0 0 Z " fill="#1A1A1A" transform="translate(277,302)"/>
<path d="M0 0 C2.64 0 5.28 0 8 0 C7.61328125 0.44730469 7.2265625 0.89460938 6.828125 1.35546875 C6.30734375 1.96003906 5.7865625 2.56460937 5.25 3.1875 C4.73953125 3.77917969 4.2290625 4.37085938 3.703125 4.98046875 C1.88967817 7.03763804 1.88967817 7.03763804 0.28125 9.71875 C-2 12 -2 12 -5.671875 12.48828125 C-7.0321116 12.4552658 -8.39192338 12.39593571 -9.75 12.3125 C-10.44738281 12.28994141 -11.14476562 12.26738281 -11.86328125 12.24414062 C-13.57644935 12.18547048 -15.28850623 12.09579256 -17 12 C-14.07647233 8.81321628 -11.18387159 6.78276705 -7.375 4.75 C-6.41335938 4.22921875 -5.45171875 3.7084375 -4.4609375 3.171875 C-2 2 -2 2 0 2 C0 1.34 0 0.68 0 0 Z " fill="#E8E8E8" transform="translate(331,426)"/>
<path d="M0 0 C4.29 0 8.58 0 13 0 C13.33 0.66 13.66 1.32 14 2 C14.66 2 15.32 2 16 2 C13.82935666 6.9784407 10.09381784 9.58628416 6 13 C5.07703125 13.82113281 4.1540625 14.64226562 3.203125 15.48828125 C2.24921875 16.31714844 1.2953125 17.14601562 0.3125 18 C-0.57824219 18.78375 -1.46898437 19.5675 -2.38671875 20.375 C-5 22 -5 22 -7.83203125 21.75 C-8.54746094 21.5025 -9.26289063 21.255 -10 21 C-6.40135244 17.35496103 -2.71484281 13.83400071 1.0625 10.375 C1.57876953 9.89804688 2.09503906 9.42109375 2.62695312 8.9296875 C5.33543987 6.44547036 8.0513504 4.2114872 11 2 C5.555 1.505 5.555 1.505 0 1 C0 0.67 0 0.34 0 0 Z " fill="#141414" transform="translate(296,227)"/>
<path d="M0 0 C0 2.97 0 5.94 0 9 C-1.93694678 9.81381795 -3.87457711 10.62600916 -5.8125 11.4375 C-7.43091797 12.11619141 -7.43091797 12.11619141 -9.08203125 12.80859375 C-11.0295126 13.60375013 -13.00438943 14.33479648 -15 15 C-15.33 12.69 -15.66 10.38 -16 8 C-14.58531689 7.03874097 -13.1681636 6.08111675 -11.75 5.125 C-10.96109375 4.59132812 -10.1721875 4.05765625 -9.359375 3.5078125 C-3.87046632 0 -3.87046632 0 0 0 Z " fill="#EEEEEE" transform="translate(154,235)"/>
<path d="M0 0 C0.66 0 1.32 0 2 0 C2 0.99 2 1.98 2 3 C2.99 3.33 3.98 3.66 5 4 C2.51328615 5.99025761 0.02576508 7.97946143 -2.46484375 9.96484375 C-10.48083813 16.19818731 -10.48083813 16.19818731 -18 23 C-18 22.34 -18 21.68 -18 21 C-18.99 21.33 -19.98 21.66 -21 22 C-21 19 -21 19 -19.453125 17.2734375 C-13.92778526 12.51224049 -8.23358477 8.12868622 -2.30859375 3.8828125 C-1.54675781 3.26148438 -0.78492188 2.64015625 0 2 C0 1.34 0 0.68 0 0 Z " fill="#1A1A1A" transform="translate(264,228)"/>
<path d="M0 0 C3.3 0 6.6 0 10 0 C10.66 1.65 11.32 3.3 12 5 C-4.53134716 18.72131708 -4.53134716 18.72131708 -10 20 C-10.33 20.33 -10.66 20.66 -11 21 C-12.51928038 21.07179964 -14.04167482 21.08392007 -15.5625 21.0625 C-16.38878906 21.05347656 -17.21507813 21.04445313 -18.06640625 21.03515625 C-19.02353516 21.01775391 -19.02353516 21.01775391 -20 21 C-20 20.67 -20 20.34 -20 20 C-18.80375 19.94199219 -17.6075 19.88398438 -16.375 19.82421875 C-11.74709511 19.24063831 -9.16635923 17.10441432 -6 13.8125 C-4.97662 12.80977627 -3.95057474 11.80976544 -2.921875 10.8125 C-2.42880859 10.32910156 -1.93574219 9.84570312 -1.42773438 9.34765625 C1.49112753 6.59250616 4.73550966 4.32281043 8 2 C5.36 1.67 2.72 1.34 0 1 C0 0.67 0 0.34 0 0 Z " fill="#141414" transform="translate(132,307)"/>
<path d="M0 0 C-1.09699219 0.60328125 -2.19398438 1.2065625 -3.32421875 1.828125 C-4.77878128 2.6351726 -6.23320083 3.44247792 -7.6875 4.25 C-8.7693457 4.84361328 -8.7693457 4.84361328 -9.87304688 5.44921875 C-13.06554824 7.22768983 -15.85365447 8.87281876 -18.625 11.28125 C-21.6937117 13.5020282 -23.57192458 13.4144209 -27.3125 13.25 C-28.38113281 13.21390625 -29.44976562 13.1778125 -30.55078125 13.140625 C-31.76314453 13.07101562 -31.76314453 13.07101562 -33 13 C-30.80758451 10.56100794 -28.8552962 9.30747202 -25.83203125 8.0625 C-25.02056641 7.72476562 -24.20910156 7.38703125 -23.37304688 7.0390625 C-22.10557617 6.52472656 -22.10557617 6.52472656 -20.8125 6 C-19.98685547 5.65710938 -19.16121094 5.31421875 -18.31054688 4.9609375 C-15.88008362 3.95734195 -13.44121931 2.97708839 -11 2 C-10.24380371 1.68546875 -9.48760742 1.3709375 -8.70849609 1.046875 C-3.34195291 -1.1139843 -3.34195291 -1.1139843 0 0 Z " fill="#E5E5E5" transform="translate(314,308)"/>
<path d="M0 0 C0.29296875 2.703125 0.29296875 2.703125 0 6 C-2.01171875 8.484375 -2.01171875 8.484375 -4.6875 10.75 C-5.55761719 11.50796875 -6.42773438 12.2659375 -7.32421875 13.046875 C-9.84838644 14.88933317 -12.05485777 16.00236624 -15 17 C-13.83429605 8.85747094 -13.83429605 8.85747094 -10.75 5.6875 C-9.8425 5.130625 -8.935 4.57375 -8 4 C-6.4221875 2.88625 -6.4221875 2.88625 -4.8125 1.75 C-2 0 -2 0 0 0 Z " fill="#E8E8E8" transform="translate(118,190)"/>
<path d="M0 0 C1.58217498 4.83442355 1.58217498 4.83442355 1 8 C-1.93958482 11.50696792 -5.30476091 14.31255339 -9 17 C-9.33 17 -9.66 17 -10 17 C-10.58737246 11.36122443 -9.47478243 8.41941219 -6.38671875 3.69921875 C-4.54525702 1.44277972 -3.00768547 0 0 0 Z " fill="#E5E5E5" transform="translate(116,273)"/>
<path d="M0 0 C1.8871875 0.061875 1.8871875 0.061875 3.8125 0.125 C-0.8269203 3.7780015 -5.9834131 6.37200928 -11.1875 9.125 C-11.97640625 9.54652344 -12.7653125 9.96804688 -13.578125 10.40234375 C-18.8102758 13.125 -18.8102758 13.125 -22.1875 13.125 C-22.1875 13.785 -22.1875 14.445 -22.1875 15.125 C-24.1675 15.125 -26.1475 15.125 -28.1875 15.125 C-28.1875 14.465 -28.1875 13.805 -28.1875 13.125 C-27.67703125 12.91746094 -27.1665625 12.70992188 -26.640625 12.49609375 C-18.55528456 9.06985906 -8.60211143 -0.28203644 0 0 Z " fill="#C6C6C6" transform="translate(281.1875,302.875)"/>
<path d="M0 0 C4.95 0 9.9 0 15 0 C12.06792248 2.93207752 9.74534068 5.0181356 6.375 7.25 C5.21097656 8.03117188 5.21097656 8.03117188 4.0234375 8.828125 C2 10 2 10 0 10 C0 6.7 0 3.4 0 0 Z " fill="#EBEBEB" transform="translate(229,231)"/>
<path d="M0 0 C0.66 0 1.32 0 2 0 C2.66 1.65 3.32 3.3 4 5 C3.31292969 5.61488281 2.62585938 6.22976563 1.91796875 6.86328125 C1.01691406 7.67152344 0.11585937 8.47976563 -0.8125 9.3125 C-2.15248047 10.51326172 -2.15248047 10.51326172 -3.51953125 11.73828125 C-5.39926786 13.45224581 -7.22592747 15.17877604 -9 17 C-9.33 16.34 -9.66 15.68 -10 15 C-10.66 15 -11.32 15 -12 15 C-12 15.66 -12 16.32 -12 17 C-13.32 17 -14.64 17 -16 17 C-15.505 15.515 -15.505 15.515 -15 14 C-15 14.66 -15 15.32 -15 16 C-14.34 16 -13.68 16 -13 16 C-12.73960938 15.4121875 -12.47921875 14.824375 -12.2109375 14.21875 C-10.92530517 11.86313979 -9.55445256 10.35362255 -7.625 8.5 C-7.00753906 7.89929688 -6.39007813 7.29859375 -5.75390625 6.6796875 C-5.17511719 6.12539063 -4.59632812 5.57109375 -4 5 C-2.64946454 3.68409365 -1.30693833 2.35921586 0 1 C0 0.67 0 0.34 0 0 Z " fill="#232223" transform="translate(123,307)"/>
<path d="M0 0 C9.41002278 -0.18451025 9.41002278 -0.18451025 14 1 C11.59888822 3.63884562 8.99444972 5.36413529 5.9375 7.1875 C5.05964844 7.71730469 4.18179687 8.24710937 3.27734375 8.79296875 C1 10 1 10 -1 10 C-2.15837626 5.94568308 -1.83691257 3.78187881 0 0 Z " fill="#EEEEEE" transform="translate(291,421)"/>
<path d="M0 0 C0.99 0.33 1.98 0.66 3 1 C3 1.99 3 2.98 3 4 C1.9171875 4.804375 1.9171875 4.804375 0.8125 5.625 C-2.97645606 8.82456289 -4.79847406 12.61568451 -7 17 C-7.99 17 -8.98 17 -10 17 C-10.99 17.66 -11.98 18.32 -13 19 C-11.58952938 15.1596097 -9.80670018 11.83332823 -7.625 8.375 C-7.03976562 7.43398437 -6.45453125 6.49296875 -5.8515625 5.5234375 C-4.05502216 3.07498801 -2.64332547 1.48489598 0 0 Z " fill="#121212" transform="translate(294,134)"/>
<path d="M0 0 C0.99 1.32 1.98 2.64 3 4 C1.11492027 5.82494959 -0.78166755 7.63444398 -2.6875 9.4375 C-3.48317383 10.2119043 -3.48317383 10.2119043 -4.29492188 11.00195312 C-8.5752082 15.0196452 -11.27578332 16 -17 16 C-12.73502369 11.61507124 -8.34080571 7.46548545 -3.69921875 3.48046875 C-2.42270555 2.36828828 -1.19716986 1.19716986 0 0 Z " fill="#171717" transform="translate(321,234)"/>
<path d="M0 0 C0.8971875 0.5259375 0.8971875 0.5259375 1.8125 1.0625 C-0.68243496 3.87881641 -3.45312818 5.47205981 -6.75 7.25 C-7.72066406 7.77980469 -8.69132813 8.30960937 -9.69140625 8.85546875 C-12.1875 10.0625 -12.1875 10.0625 -14.1875 10.0625 C-14.5175 10.7225 -14.8475 11.3825 -15.1875 12.0625 C-15.8475 10.4125 -16.5075 8.7625 -17.1875 7.0625 C-15.25203884 5.91322616 -13.31405872 4.76819358 -11.375 3.625 C-10.29605469 2.98691406 -9.21710938 2.34882813 -8.10546875 1.69140625 C-2.87122093 -1.23052326 -2.87122093 -1.23052326 0 0 Z " fill="#1B1B1B" transform="translate(192.1875,368.9375)"/>
<path d="M0 0 C2 1 2 1 2.9375 2.6875 C3.02110528 5.78089538 1.82979998 7.52376309 -0.1875 9.8046875 C-3.73805639 12.14621822 -7.92763228 11.42700555 -12 11 C-8.68542782 6.30435607 -4.63720719 3.27530896 0 0 Z " fill="#EEEEEE" transform="translate(259,239)"/>
<path d="M0 0 C0.66 0.33 1.32 0.66 2 1 C1.67 1.33 1.34 1.66 1 2 C1.66 2.66 2.32 3.32 3 4 C2.15695312 4.55429687 1.31390625 5.10859375 0.4453125 5.6796875 C-0.65039062 6.40414063 -1.74609375 7.12859375 -2.875 7.875 C-3.96554687 8.59429687 -5.05609375 9.31359375 -6.1796875 10.0546875 C-8.98427498 11.86388308 -8.98427498 11.86388308 -11 14 C-13.625 13.625 -13.625 13.625 -16 13 C-15.34 12.67 -14.68 12.34 -14 12 C-13.75507813 11.40703125 -13.51015625 10.8140625 -13.2578125 10.203125 C-11.44314351 7.02463645 -8.93676814 5.70432009 -5.875 3.75 C-4.77929688 3.04359375 -3.68359375 2.3371875 -2.5546875 1.609375 C-1.71164062 1.07828125 -0.86859375 0.5471875 0 0 Z " fill="#171717" transform="translate(283,421)"/>
<path d="M0 0 C0.66 0.33 1.32 0.66 2 1 C-2.32347025 7.56526964 -8.89065946 10.9642243 -16 14 C-16.66 13.67 -17.32 13.34 -18 13 C-13.97008892 5.5372017 -7.91661773 2.67847367 0 0 Z " fill="#E0E1E1" transform="translate(187,118)"/>
<path d="M0 0 C0.33 0 0.66 0 1 0 C1.625 2.625 1.625 2.625 1 6 C-2.3233862 8.67315847 -6.60382475 12 -11 12 C-11.33 12.66 -11.66 13.32 -12 14 C-12.99 13.01 -13.98 12.02 -15 11 C-12.4650336 8.18911889 -9.58096754 6.36286905 -6.375 4.375 C-3.00896249 2.42174335 -3.00896249 2.42174335 0 0 Z " fill="#171717" transform="translate(236,404)"/>
<path d="M0 0 C0.66 0.33 1.32 0.66 2 1 C1.67 1.66 1.34 2.32 1 3 C1.66 3.33 2.32 3.66 3 4 C0.69 5.98 -1.62 7.96 -4 10 C2.6 10.33 9.2 10.66 16 11 C16 11.33 16 11.66 16 12 C12.37506666 12.05787784 8.75025143 12.0935542 5.125 12.125 C4.09246094 12.14175781 3.05992187 12.15851563 1.99609375 12.17578125 C1.00996094 12.18222656 0.02382813 12.18867188 -0.9921875 12.1953125 C-2.35899658 12.21102295 -2.35899658 12.21102295 -3.75341797 12.22705078 C-6 12 -6 12 -8 10 C-8.99 10.495 -8.99 10.495 -10 11 C-8.55218207 7.55571735 -6.72305391 5.63869038 -3.875 3.25 C-3.15054687 2.63640625 -2.42609375 2.0228125 -1.6796875 1.390625 C-0.84824219 0.70226562 -0.84824219 0.70226562 0 0 Z " fill="#282828" transform="translate(267,239)"/>
<path d="M0 0 C2.0703125 3.7265625 2.0703125 3.7265625 1.4375 6.1875 C0.7259375 7.5796875 0.7259375 7.5796875 0 9 C-0.35578125 9.75410156 -0.7115625 10.50820312 -1.078125 11.28515625 C-1.48546875 12.09855469 -1.8928125 12.91195312 -2.3125 13.75 C-2.70050781 14.52859375 -3.08851563 15.3071875 -3.48828125 16.109375 C-5 18 -5 18 -7.66796875 18.765625 C-8.43753906 18.84296875 -9.20710938 18.9203125 -10 19 C-8.62394084 14.23448987 -6.53221934 10.2751447 -3.875 6.125 C-3.50246094 5.53203125 -3.12992187 4.9390625 -2.74609375 4.328125 C-1.83635 2.8818657 -0.91896202 1.44041954 0 0 Z " fill="#191919" transform="translate(329,126)"/>
<path d="M0 0 C1.20081128 3.60243383 0.43721085 4.87285083 -1.15625 8.19140625 C-1.4759375 8.82949219 -1.795625 9.46757812 -2.125 10.125 C-2.56972656 11.09373047 -2.56972656 11.09373047 -3.0234375 12.08203125 C-4.5745236 15.21706545 -5.35419838 16.78105301 -8.7421875 17.9296875 C-9.48726563 17.95289063 -10.23234375 17.97609375 -11 18 C-9.02756112 11.00680762 -6.16585221 4.13243286 0 0 Z " fill="#181818" transform="translate(348,126)"/>
<path d="M0 0 C0.66 0.33 1.32 0.66 2 1 C-0.77374518 7.80828362 -7.56517883 12.32038971 -13 17 C-13.33 16.01 -13.66 15.02 -14 14 C-13.34 14 -12.68 14 -12 14 C-12 13.34 -12 12.68 -12 12 C-12.66 11.67 -13.32 11.34 -14 11 C-9.38 7.37 -4.76 3.74 0 0 Z " fill="#1A1A1A" transform="translate(118,223)"/>
<path d="M0 0 C0.33 0.99 0.66 1.98 1 3 C-0.28627711 4.17260611 -1.57919783 5.3379283 -2.875 6.5 C-3.59429687 7.1496875 -4.31359375 7.799375 -5.0546875 8.46875 C-7 10 -7 10 -9 10 C-9.66 11.32 -10.32 12.64 -11 14 C-12.98 14 -14.96 14 -17 14 C-13.91785344 9.70483041 -10.59097712 7.05445302 -6.25 4.1875 C-5.34701172 3.57745117 -5.34701172 3.57745117 -4.42578125 2.95507812 C-2.95522809 1.9630383 -1.47825841 0.98052112 0 0 Z " fill="#DADADA" transform="translate(164,311)"/>
<path d="M0 0 C0 1.98 0 3.96 0 6 C0.66 6.33 1.32 6.66 2 7 C1.34 7.66 0.68 8.32 0 9 C-0.99 8.67 -1.98 8.34 -3 8 C-3 7.01 -3 6.02 -3 5 C-4.70840281 6.63412443 -5.93453047 7.86906094 -7 10 C-6.34 10.33 -5.68 10.66 -5 11 C-5.99 11.66 -6.98 12.32 -8 13 C-7.67 13.66 -7.34 14.32 -7 15 C-7.66 15 -8.32 15 -9 15 C-9 15.99 -9 16.98 -9 18 C-9.99 17.67 -10.98 17.34 -12 17 C-9.08285946 4.89926889 -9.08285946 4.89926889 -3 1 C-1 0 -1 0 0 0 Z M3 4 C3.33 4.66 3.66 5.32 4 6 C3.34 5.67 2.68 5.34 2 5 C2.33 4.67 2.66 4.34 3 4 Z " fill="#393939" transform="translate(264,159)"/>
<path d="M0 0 C4.29 0 8.58 0 13 0 C13.33 0.66 13.66 1.32 14 2 C14.66 2 15.32 2 16 2 C14.55218207 5.44428265 12.72305391 7.36130962 9.875 9.75 C8.78832031 10.67039063 8.78832031 10.67039063 7.6796875 11.609375 C7.12539063 12.06828125 6.57109375 12.5271875 6 13 C5.67 12.01 5.34 11.02 5 10 C4.34 9.67 3.68 9.34 3 9 C6.96 5.535 6.96 5.535 11 2 C7.37 1.67 3.74 1.34 0 1 C0 0.67 0 0.34 0 0 Z " fill="#222222" transform="translate(296,227)"/>
<path d="M0 0 C0.66 0.33 1.32 0.66 2 1 C0.732949 6.08276779 -0.94494801 8.26675621 -5.125 11.375 C-6.49011719 12.40753906 -6.49011719 12.40753906 -7.8828125 13.4609375 C-8.58148438 13.96882812 -9.28015625 14.47671875 -10 15 C-10.66 13.68 -11.32 12.36 -12 11 C-8.19588166 7.08060535 -4.18423892 3.50897269 0 0 Z " fill="#181818" transform="translate(116,211)"/>
<path d="M0 0 C1 2 1 2 0.46875 3.921875 C-1.6571454 6.92979083 -4.15449927 7.78449304 -7.5 9.25 C-8.6653125 9.77078125 -9.830625 10.2915625 -11.03125 10.828125 C-14 12 -14 12 -16 12 C-15.05141656 8.13218441 -14.19648434 7.12180144 -10.7421875 4.98046875 C-9.46093028 4.36625782 -8.17144259 3.76897376 -6.875 3.1875 C-5.88693359 2.72053711 -5.88693359 2.72053711 -4.87890625 2.24414062 C-3.25946276 1.48135927 -1.63058695 0.73866014 0 0 Z " fill="#E5E5E5" transform="translate(178,132)"/>
<path d="M0 0 C0 2.31 0 4.62 0 7 C-4.95 7 -9.9 7 -15 7 C-12.11990998 4.11990998 -10.61362543 3.22556147 -6.9375 1.8125 C-6.05964844 1.46832031 -5.18179688 1.12414062 -4.27734375 0.76953125 C-2 0 -2 0 0 0 Z " fill="#E5E5E5" transform="translate(155,248)"/>
<path d="M0 0 C0.33 0 0.66 0 1 0 C1.33 3.3 1.66 6.6 2 10 C4.31 7.69 6.62 5.38 9 3 C9.66 3.33 10.32 3.66 11 4 C10.91433603 6.912575 10.42089045 8.56798024 8.375 10.66796875 C6.61608625 12.16091772 4.83686981 13.60436262 3 15 C1.51171875 13.88671875 1.51171875 13.88671875 0 12 C-0.29296875 9.08203125 -0.29296875 9.08203125 -0.1875 5.8125 C-0.16042969 4.72582031 -0.13335937 3.63914062 -0.10546875 2.51953125 C-0.07066406 1.68808594 -0.03585938 0.85664063 0 0 Z " fill="#242424" transform="translate(105,297)"/>
<path d="M0 0 C1 3 1 3 0 6 C-0.12375 6.78375 -0.2475 7.5675 -0.375 8.375 C-1 11 -1 11 -2.625 13.6875 C-3.305625 14.8321875 -3.305625 14.8321875 -4 16 C-3.67 16.66 -3.34 17.32 -3 18 C-3.99 18 -4.98 18 -6 18 C-6 17.34 -6 16.68 -6 16 C-7.65 16.66 -9.3 17.32 -11 18 C-3.70159453 5.33029613 -3.70159453 5.33029613 0 0 Z " fill="#1C1C1C" transform="translate(309,132)"/>
<path d="M0 0 C0.66 0.33 1.32 0.66 2 1 C0.98823563 4.40320742 0.35156418 5.75725331 -2.625 7.8125 C-3.40875 8.204375 -4.1925 8.59625 -5 9 C-2.03 9.33 0.94 9.66 4 10 C4 10.33 4 10.66 4 11 C0.04 11 -3.92 11 -8 11 C-8 10.01 -8 9.02 -8 8 C-8.99 7.67 -9.98 7.34 -11 7 C-9.21475351 5.80286983 -7.4215972 4.61752721 -5.625 3.4375 C-4.62726563 2.77621094 -3.62953125 2.11492187 -2.6015625 1.43359375 C-1.74304688 0.96050781 -0.88453125 0.48742187 0 0 Z " fill="#272727" transform="translate(306,311)"/>
<path d="M0 0 C-3.13630212 3.48478013 -6.57476871 6.74241825 -11.390625 7.25390625 C-13.60771751 7.25042026 -15.79041619 7.1767667 -18 7 C-12.96559631 1.57713923 -7.3054169 -0.60878474 0 0 Z " fill="#DDDDDD" transform="translate(142,235)"/>
<path d="M0 0 C-2.61847903 6.42717579 -8.73646274 11.24823677 -15 14 C-15.99 13.67 -16.98 13.34 -18 13 C-16.68 12.34 -15.36 11.68 -14 11 C-14 10.34 -14 9.68 -14 9 C-12.07412421 7.36860063 -10.15673283 5.86276775 -8.125 4.375 C-7.56941406 3.95476562 -7.01382813 3.53453125 -6.44140625 3.1015625 C-2.26235288 0 -2.26235288 0 0 0 Z " fill="#D1D1D1" transform="translate(198,103)"/>
<path d="M0 0 C1.0209375 0.61875 1.0209375 0.61875 2.0625 1.25 C-2.1830801 4.78798342 -7.27197879 8.47212677 -12.9375 8 C-13.5975 7.7525 -14.2575 7.505 -14.9375 7.25 C-4.91413551 -1.2546729 -4.91413551 -1.2546729 0 0 Z " fill="#141414" transform="translate(304.9375,424.75)"/>
<path d="M0 0 C0.66 1.32 1.32 2.64 2 4 C1.0625 6 1.0625 6 -1 8 C-4.02534949 8.36475845 -6.96663814 8.22893297 -10 8 C-9.09515208 6.84481082 -8.1755794 5.70114594 -7.25 4.5625 C-6.73953125 3.92441406 -6.2290625 3.28632813 -5.703125 2.62890625 C-3.80332371 0.81189446 -2.56413092 0.39576803 0 0 Z " fill="#EDEDED" transform="translate(320,243)"/>
<path d="M0 0 C0 2 0 4 0 6 C-2.59375835 7.55754223 -5.14731103 8.97703944 -8 10 C-11 9.25 -11 9.25 -13 8 C-10.59310197 5.27324841 -8.07528977 3.88033404 -4.8125 2.3125 C-3.91144531 1.87550781 -3.01039063 1.43851562 -2.08203125 0.98828125 C-1.39496094 0.66214844 -0.70789063 0.33601563 0 0 Z " fill="#212121" transform="translate(183,356)"/>
<path d="M0 0 C-2.38720726 2.38720726 -4.08634027 2.82449816 -7.3125 3.75 C-8.72982422 4.17539062 -8.72982422 4.17539062 -10.17578125 4.609375 C-13.44085722 5.0609761 -15.09164252 4.46212507 -18 3 C-12.16681199 -0.88879201 -6.65826305 -3.24376918 0 0 Z " fill="#1D1D1D" transform="translate(309,308)"/>
<path d="M0 0 C4.95 0 9.9 0 15 0 C13.03451316 7.86194736 6.09430792 13.02505476 0 18 C-0.66 17.67 -1.32 17.34 -2 17 C2.95 12.05 7.9 7.1 13 2 C8.71 1.67 4.42 1.34 0 1 C0 0.67 0 0.34 0 0 Z " fill="#383838" transform="translate(370,126)"/>
<path d="M0 0 C0 0.66 0 1.32 0 2 C0.99 2.33 1.98 2.66 3 3 C1.76446724 4.20254524 0.51097661 5.38666232 -0.75 6.5625 C-1.79414063 7.55443359 -1.79414063 7.55443359 -2.859375 8.56640625 C-5 10 -5 10 -7.265625 9.71484375 C-7.83796875 9.47894531 -8.4103125 9.24304688 -9 9 C-7.45665977 5.21180126 -4.44676575 0 0 0 Z " fill="#141414" transform="translate(262,418)"/>
<path d="M0 0 C4.29 0 8.58 0 13 0 C14 3 14 3 13.3125 5.0625 C11.78740335 7.31383315 10.49415272 8.00233891 8 9 C7.01 8.01 6.02 7.02 5 6 C6.98 4.68 8.96 3.36 11 2 C7.04 2 3.08 2 -1 2 C-0.67 1.34 -0.34 0.68 0 0 Z " fill="#303030" transform="translate(149,307)"/>
<path d="M0 0 C0.99 0.33 1.98 0.66 3 1 C2.505 1.515625 2.01 2.03125 1.5 2.5625 C-0.49649241 5.80680017 -0.21564385 8.26217334 0 12 C-4.625 14.125 -4.625 14.125 -8 13 C-5.36 8.71 -2.72 4.42 0 0 Z " fill="#DFDFDF" transform="translate(156,151)"/>
<path d="M0 0 C-1.8125 2.5 -1.8125 2.5 -4 5 C-4.99 5 -5.98 5 -7 5 C-7 5.66 -7 6.32 -7 7 C-9.475 6.01 -9.475 6.01 -12 5 C-10.25939521 2.09899201 -9.15165006 1.0663469 -6 -0.3125 C-3 -1 -3 -1 0 0 Z " fill="#232323" transform="translate(260,311)"/>
<path d="M0 0 C0.66 0.33 1.32 0.66 2 1 C2 4 2 4 -0.3125 6.5625 C-3 9 -3 9 -6 11 C-6.66 9.68 -7.32 8.36 -8 7 C-5.36 4.69 -2.72 2.38 0 0 Z " fill="#131313" transform="translate(165,331)"/>
<path d="M0 0 C0.66 0.33 1.32 0.66 2 1 C1.525625 1.391875 1.05125 1.78375 0.5625 2.1875 C-1.21577182 3.93500943 -1.21577182 3.93500943 -1.4375 6.5625 C-2 9 -2 9 -3.73828125 10.17578125 C-6.37698305 11.1373807 -7.9885407 11.03109696 -10.75 10.625 C-11.54921875 10.51414062 -12.3484375 10.40328125 -13.171875 10.2890625 C-14.07679688 10.14597656 -14.07679688 10.14597656 -15 10 C-14.67 9.34 -14.34 8.68 -14 8 C-12.6696875 8.1546875 -12.6696875 8.1546875 -11.3125 8.3125 C-6.93733393 7.89974848 -5.81017043 6.26587374 -3 3 C-2 2 -1 1 0 0 Z " fill="#212121" transform="translate(161,316)"/>
<path d="M0 0 C-9.00568182 7.20454545 -9.00568182 7.20454545 -13.4375 6.75 C-13.953125 6.5025 -14.46875 6.255 -15 6 C-9.52533382 0.38126366 -7.60105179 -0.12259761 0 0 Z " fill="#F1F1F1" transform="translate(285,303)"/>
<path d="M0 0 C-3.08632611 3.2626876 -5.93483504 6.02235218 -10 8 C-10.66 7.67 -11.32 7.34 -12 7 C-9.14032181 0.62071789 -7.11769183 -0.40288822 0 0 Z " fill="#F1F1F1" transform="translate(343,227)"/>
<path d="M0 0 C0.66 0.33 1.32 0.66 2 1 C1.525625 1.598125 1.05125 2.19625 0.5625 2.8125 C-1.16465744 5.00382924 -1.16465744 5.00382924 -2 8 C-2 7.34 -2 6.68 -2 6 C-3.98 6.66 -5.96 7.32 -8 8 C-8.99 7.01 -9.98 6.02 -11 5 C-9.21289414 4.13633178 -7.4201535 3.28431406 -5.625 2.4375 C-4.62726563 1.96183594 -3.62953125 1.48617187 -2.6015625 0.99609375 C-1.74304688 0.66738281 -0.88453125 0.33867187 0 0 Z " fill="#202020" transform="translate(175,138)"/>
<path d="M0 0 C2.475 0.99 2.475 0.99 5 2 C4.34 2.66 3.68 3.32 3 4 C6.63 4.33 10.26 4.66 14 5 C14 5.33 14 5.66 14 6 C11.77110504 6.05428973 9.54182529 6.09292338 7.3125 6.125 C5.45044922 6.15980469 5.45044922 6.15980469 3.55078125 6.1953125 C0.18762143 6.01032021 -1.9985587 5.45767895 -5 4 C-3.35 2.68 -1.7 1.36 0 0 Z " fill="#303030" transform="translate(312,433)"/>
<path d="M0 0 C-1.98 2.31 -3.96 4.62 -6 7 C-6.99 6.67 -7.98 6.34 -9 6 C-8.62492618 3.28071483 -8.15781339 2.15781339 -6.1875 0.1875 C-4 -1 -4 -1 0 0 Z " fill="#111111" transform="translate(331,230)"/>
<path d="M0 0 C-0.37047118 2.74148672 -0.68587944 4.58593199 -2.375 6.8125 C-4.79008933 8.57737297 -7.07054392 8 -10 8 C-8.90653119 6.65787938 -7.7998425 5.32652025 -6.6875 4 C-5.76517578 2.88625 -5.76517578 2.88625 -4.82421875 1.75 C-3 0 -3 0 0 0 Z " fill="#1C1C1C" transform="translate(248,414)"/>
<path d="M0 0 C0.33 0.66 0.66 1.32 1 2 C1.99 2.33 2.98 2.66 4 3 C1.36 4.98 -1.28 6.96 -4 9 C-4.66 8.34 -5.32 7.68 -6 7 C-4.60667426 3.63279613 -3.0210714 2.0140476 0 0 Z " fill="#121212" transform="translate(114,199)"/>
<path d="M0 0 C0.68359375 1.703125 0.68359375 1.703125 1 4 C-0.21484375 6.359375 -0.21484375 6.359375 -1.9375 8.75 C-2.50339844 9.54921875 -3.06929688 10.3484375 -3.65234375 11.171875 C-4.09707031 11.77515625 -4.54179687 12.3784375 -5 13 C-6.0703125 11.19140625 -6.0703125 11.19140625 -7 9 C-5.46751017 4.82822214 -3.78152559 2.34715382 0 0 Z " fill="#0F0F0F" transform="translate(315,127)"/>
<path d="M0 0 C0.66 0.33 1.32 0.66 2 1 C1.01 2.485 1.01 2.485 0 4 C0.66 4 1.32 4 2 4 C2.33 5.32 2.66 6.64 3 8 C2.01 8.33 1.02 8.66 0 9 C0 8.01 0 7.02 0 6 C-1.98 6.66 -3.96 7.32 -6 8 C-5.8125 5.6875 -5.8125 5.6875 -5 3 C-2.5625 1.125 -2.5625 1.125 0 0 Z " fill="#1A1A1A" transform="translate(178,127)"/>
<path d="M0 0 C0.66 0.33 1.32 0.66 2 1 C-3 7.57142857 -3 7.57142857 -8 9 C-8.33 8.34 -8.66 7.68 -9 7 C-8 4 -8 4 -6.22265625 2.796875 C-5.50980469 2.45140625 -4.79695312 2.1059375 -4.0625 1.75 C-3.35222656 1.39421875 -2.64195312 1.0384375 -1.91015625 0.671875 C-1.27980469 0.45015625 -0.64945313 0.2284375 0 0 Z " fill="#D4D4D4" transform="translate(187,118)"/>
<path d="M0 0 C0.66 0.33 1.32 0.66 2 1 C2.625 3.0625 2.625 3.0625 3 5 C4.65 5.33 6.3 5.66 8 6 C8 6.33 8 6.66 8 7 C3.48382401 7.07654536 -0.59085217 7.10228696 -5 6 C-3.63016497 2.83884224 -3.0109362 2.0072908 0 0 Z " fill="#C2C2C2" transform="translate(278,429)"/>
<path d="M0 0 C1.21236328 0.02707031 1.21236328 0.02707031 2.44921875 0.0546875 C3.37154297 0.08949219 3.37154297 0.08949219 4.3125 0.125 C2.9187718 4.55958973 0.70667765 6.99878374 -2.6875 10.125 C-3.3475 9.795 -4.0075 9.465 -4.6875 9.125 C-2.7075 6.815 -0.7275 4.505 1.3125 2.125 C-1.6575 2.125 -4.6275 2.125 -7.6875 2.125 C-4.48369983 -0.01086678 -3.66810033 -0.10632175 0 0 Z " fill="#3A3A3A" transform="translate(358.6875,421.875)"/>
<path d="M0 0 C0.66 0.33 1.32 0.66 2 1 C0.98823563 4.40320742 0.35156418 5.75725331 -2.625 7.8125 C-3.40875 8.204375 -4.1925 8.59625 -5 9 C-5.99 8.01 -6.98 7.02 -8 6 C-5.36 4.02 -2.72 2.04 0 0 Z " fill="#1B1B1B" transform="translate(219,399)"/>
<path d="M0 0 C0.7425 0.2475 1.485 0.495 2.25 0.75 C-0.225 4.215 -0.225 4.215 -2.75 7.75 C-3.08 7.09 -3.41 6.43 -3.75 5.75 C-4.74 6.08 -5.73 6.41 -6.75 6.75 C-6.75 3.75 -6.75 3.75 -5.0625 1.5 C-2.75 -0.25 -2.75 -0.25 0 0 Z " fill="#111111" transform="translate(249.75,243.25)"/>
<path d="M0 0 C0.680625 0.309375 1.36125 0.61875 2.0625 0.9375 C-3.12394068 6.55614407 -3.12394068 6.55614407 -6.9375 6.9375 C-7.9275 6.9375 -8.9175 6.9375 -9.9375 6.9375 C-3.86310175 -0.08219365 -3.86310175 -0.08219365 0 0 Z " fill="#1D1D1D" transform="translate(313.9375,243.0625)"/>
<path d="M0 0 C0.66 0.33 1.32 0.66 2 1 C-0.31 3.31 -2.62 5.62 -5 8 C-2.69 8.33 -0.38 8.66 2 9 C2 9.33 2 9.66 2 10 C-1.96 10 -5.92 10 -10 10 C-7.02911382 6.00073014 -3.87051275 3.07881696 0 0 Z " fill="#CACACA" transform="translate(136,317)"/>
<path d="M0 0 C0.33 0 0.66 0 1 0 C1 3.3 1 6.6 1 10 C2.175625 9.2265625 2.175625 9.2265625 3.375 8.4375 C4.24125 7.963125 5.1075 7.48875 6 7 C6.66 7.33 7.32 7.66 8 8 C6.52307692 12.67692308 6.52307692 12.67692308 3.875 14.3125 C2.946875 14.6528125 2.946875 14.6528125 2 15 C2 14.01 2 13.02 2 12 C1.34 11.67 0.68 11.34 0 11 C0 7.37 0 3.74 0 0 Z " fill="#2E2E2E" transform="translate(228,231)"/>
<path d="M0 0 C4.62 0 9.24 0 14 0 C14.33 0.66 14.66 1.32 15 2 C12.69 3.65 10.38 5.3 8 7 C8 5.35 8 3.7 8 2 C5.36 1.67 2.72 1.34 0 1 C0 0.67 0 0.34 0 0 Z " fill="#333333" transform="translate(331,425)"/>
<path d="M0 0 C1.6026782 -0.10824843 3.20745748 -0.18570645 4.8125 -0.25 C5.70582031 -0.29640625 6.59914063 -0.3428125 7.51953125 -0.390625 C10 0 10 0 11.82421875 2.015625 C12.40623047 2.99789063 12.40623047 2.99789063 13 4 C11.02 4.66 9.04 5.32 7 6 C6.01 5.01 5.02 4.02 4 3 C4.66 2.67 5.32 2.34 6 2 C3.03 1.505 3.03 1.505 0 1 C0 0.67 0 0.34 0 0 Z " fill="#333333" transform="translate(277,302)"/>
<path d="M0 0 C0.66 0.33 1.32 0.66 2 1 C1.38125 1.495 0.7625 1.99 0.125 2.5 C-2.74988222 5.88221437 -3.13451417 8.67257085 -4 13 C-4.66 13 -5.32 13 -6 13 C-6.7230444 5.89006342 -6.7230444 5.89006342 -4.6640625 3.35546875 C-3 2 -3 2 0 0 Z " fill="#D3D3D3" transform="translate(108,223)"/>
<path d="M0 0 C-2 2 -2 2 -4 3 C-4 2.34 -4 1.68 -4 1 C-11.26 1 -18.52 1 -26 1 C-26 0.67 -26 0.34 -26 0 C-22.41713181 -0.19720979 -18.83369943 -0.38107522 -15.25 -0.5625 C-14.23421875 -0.61857422 -13.2184375 -0.67464844 -12.171875 -0.73242188 C-11.1921875 -0.78076172 -10.2125 -0.82910156 -9.203125 -0.87890625 C-8.30239258 -0.9260376 -7.40166016 -0.97316895 -6.47363281 -1.02172852 C-4.12542592 -1.00110175 -2.23793298 -0.67823071 0 0 Z " fill="#999999" transform="translate(164,189)"/>
<path d="M0 0 C0.66 0.33 1.32 0.66 2 1 C-2.85526316 7.20394737 -2.85526316 7.20394737 -7 9 C-8.70921589 10.5412312 -8.70921589 10.5412312 -10 12 C-10.99 11.67 -11.98 11.34 -13 11 C-8.71 7.37 -4.42 3.74 0 0 Z " fill="#232323" transform="translate(152,314)"/>
<path d="M0 0 C0.99 0.33 1.98 0.66 3 1 C3 2.32 3 3.64 3 5 C0.03 5 -2.94 5 -6 5 C-2.25 1.125 -2.25 1.125 0 0 Z " fill="#ECECEC" transform="translate(306,316)"/>
<path d="M0 0 C0.99 0.33 1.98 0.66 3 1 C3 1.99 3 2.98 3 4 C1.125 5.0625 1.125 5.0625 -1 6 C-1.66 5.67 -2.32 5.34 -3 5 C-3.99 6.485 -3.99 6.485 -5 8 C-5.66 7.67 -6.32 7.34 -7 7 C-4.78071806 4.09197539 -3.07030857 2.04687238 0 0 Z " fill="#202020" transform="translate(294,134)"/>
<path d="M0 0 C0.66 0.33 1.32 0.66 2 1 C1.67 2.65 1.34 4.3 1 6 C-2 7 -2 7 -5 7 C-5.66 7.66 -6.32 8.32 -7 9 C-7.99 8.67 -8.98 8.34 -10 8 C-6.7 5.36 -3.4 2.72 0 0 Z " fill="#222222" transform="translate(208,392)"/>
<path d="M0 0 C0.33 0 0.66 0 1 0 C1 2.97 1 5.94 1 9 C-3 7 -3 7 -4 5 C-2.69254251 3.31295807 -1.35827971 1.64639965 0 0 Z " fill="#E1E1E1" transform="translate(119,214)"/>
<path d="M0 0 C0.66 0 1.32 0 2 0 C2 2.64 2 5.28 2 8 C-0.475 7.01 -0.475 7.01 -3 6 C-1.125 1.125 -1.125 1.125 0 0 Z " fill="#DEDEDE" transform="translate(118,201)"/>
<path d="M0 0 C0.66 0.33 1.32 0.66 2 1 C1.34 2.98 0.68 4.96 0 7 C-2.31 7.33 -4.62 7.66 -7 8 C-6.02133662 6.85373678 -5.04205413 5.70800212 -4.0625 4.5625 C-3.51722656 3.92441406 -2.97195313 3.28632813 -2.41015625 2.62890625 C-1.63204305 1.73008851 -0.84063472 0.84063472 0 0 Z " fill="#10100F" transform="translate(338,427)"/>
<path d="M0 0 C-1.38481328 0.87191947 -2.78345246 1.72190384 -4.1875 2.5625 C-4.96480469 3.03816406 -5.74210937 3.51382812 -6.54296875 4.00390625 C-9.48360967 5.19605797 -11.00446363 4.88855164 -14 4 C-11.58592302 2.39061535 -9.65955563 1.34509262 -7 0.3125 C-5.9790625 -0.09548828 -5.9790625 -0.09548828 -4.9375 -0.51171875 C-3 -1 -3 -1 0 0 Z " fill="#B2B2B2" transform="translate(314,308)"/>
<path d="M0 0 C0.66 0.33 1.32 0.66 2 1 C2 2.32 2 3.64 2 5 C-0.875 5.625 -0.875 5.625 -4 6 C-4.66 5.34 -5.32 4.68 -6 4 C-4.02 2.68 -2.04 1.36 0 0 Z " fill="#1C1C1C" transform="translate(296,427)"/>
<path d="M0 0 C0.66 0.33 1.32 0.66 2 1 C-1 4 -4 7 -7 10 C-7 6 -7 6 -5.46875 4.296875 C-4.8190625 3.78640625 -4.169375 3.2759375 -3.5 2.75 C-2.8503125 2.22921875 -2.200625 1.7084375 -1.53125 1.171875 C-0.77328125 0.59179688 -0.77328125 0.59179688 0 0 Z " fill="#DBDBDB" transform="translate(211,395)"/>
<path d="M0 0 C3.3 0 6.6 0 10 0 C10.66 1.65 11.32 3.3 12 5 C10.02 5.99 10.02 5.99 8 7 C8 5.35 8 3.7 8 2 C5.36 1.67 2.72 1.34 0 1 C0 0.67 0 0.34 0 0 Z " fill="#363636" transform="translate(132,307)"/>
<path d="M0 0 C0.66 0.99 1.32 1.98 2 3 C0.02 4.32 -1.96 5.64 -4 7 C-4 3 -4 3 -3 1 C-2.01 0.67 -1.02 0.34 0 0 Z " fill="#0D0D0D" transform="translate(239,236)"/>
<path d="M0 0 C1.65 0 3.3 0 5 0 C3.515 1.485 3.515 1.485 2 3 C2.33 3.66 2.66 4.32 3 5 C2.34 5 1.68 5 1 5 C1 5.99 1 6.98 1 8 C0.01 7.67 -0.98 7.34 -2 7 C-1.42415568 4.61435923 -0.77772405 2.33317216 0 0 Z " fill="#242424" transform="translate(254,169)"/>
<path d="M0 0 C0.66 0.33 1.32 0.66 2 1 C0.50260417 2.23697917 -0.99479167 3.47395833 -2.4921875 4.7109375 C-3.71051161 5.75250992 -4.86660097 6.86660097 -6 8 C-6.33 6.35 -6.66 4.7 -7 3 C-4.69631264 1.93347808 -2.35981813 0.93578995 0 0 Z " fill="#DBDBDB" transform="translate(294,132)"/>
<path d="M0 0 C-1.44253657 3.36591866 -3.33264727 5.51047079 -6 8 C-6.33 6.68 -6.66 5.36 -7 4 C-2.25 0 -2.25 0 0 0 Z " fill="#C7C7C7" transform="translate(198,103)"/>
<path d="M0 0 C0.598125 0.350625 1.19625 0.70125 1.8125 1.0625 C0.5625 2.625 0.5625 2.625 -1.1875 4.0625 C-3.375 3.75 -3.375 3.75 -5.1875 3.0625 C-5.1875 2.0725 -5.1875 1.0825 -5.1875 0.0625 C-2.1875 -0.9375 -2.1875 -0.9375 0 0 Z " fill="#161616" transform="translate(192.1875,368.9375)"/>
<path d="M0 0 C1.65 0 3.3 0 5 0 C4.6875 1.875 4.6875 1.875 4 4 C3.01 4.66 2.02 5.32 1 6 C0 5 0 5 -0.0625 2.4375 C-0.041875 1.633125 -0.02125 0.82875 0 0 Z " fill="#737373" transform="translate(241,302)"/>
<path d="M0 0 C1.95901454 0.11382653 3.9172338 0.24141125 5.875 0.375 C6.96554687 0.44460938 8.05609375 0.51421875 9.1796875 0.5859375 C12 1 12 1 14 3 C13.08476562 2.98839844 12.16953125 2.97679687 11.2265625 2.96484375 C10.03804688 2.95582031 8.84953125 2.94679688 7.625 2.9375 C5.84996094 2.92009766 5.84996094 2.92009766 4.0390625 2.90234375 C1.08078479 2.78533407 1.08078479 2.78533407 -1 4 C-0.67 2.68 -0.34 1.36 0 0 Z " fill="#313131" transform="translate(290,419)"/>
<path d="M0 0 C0.66 0.99 1.32 1.98 2 3 C-3.17578125 6.22265625 -3.17578125 6.22265625 -5 7 C-5.99 6.67 -6.98 6.34 -8 6 C-5.36 4.02 -2.72 2.04 0 0 Z " fill="#676165" transform="translate(371,421)"/>
<path d="M0 0 C0 0.66 0 1.32 0 2 C-1.98 2.99 -3.96 3.98 -6 5 C-6.66 3.68 -7.32 2.36 -8 1 C-5.07175348 0.02391783 -3.04386724 -0.08226668 0 0 Z " fill="#DBDBDB" transform="translate(303,312)"/>
<path d="M0 0 C2.25 0.25 2.25 0.25 4 1 C1.6875 3.0625 1.6875 3.0625 -1 5 C-1.99 4.67 -2.98 4.34 -4 4 C-2.25 1.9375 -2.25 1.9375 0 0 Z " fill="#F2F2F2" transform="translate(334,303)"/>
<path d="M0 0 C0.75 1.75 0.75 1.75 1 4 C-0.9375 6.25 -0.9375 6.25 -3 8 C-3.66 7.34 -4.32 6.68 -5 6 C-3.63016497 2.83884224 -3.0109362 2.0072908 0 0 Z " fill="#121212" transform="translate(142,235)"/>
<path d="M0 0 C2 0.6875 2 0.6875 4 2.6875 C2.02 3.3475 0.04 4.0075 -2 4.6875 C-2.66 3.3675 -3.32 2.0475 -4 0.6875 C-2 -0.3125 -2 -0.3125 0 0 Z " fill="#232323" transform="translate(283,230.3125)"/>
<path d="M0 0 C1 3 1 3 0.25 5.125 C-1 7 -1 7 -4 8 C-3.40138258 5.64828869 -2.73075648 3.3140622 -2 1 C-1.34 0.67 -0.68 0.34 0 0 Z " fill="#DCDCDC" transform="translate(267,158)"/>
<path d="M0 0 C0 0.66 0 1.32 0 2 C1.32 2.33 2.64 2.66 4 3 C2.02 3.66 0.04 4.32 -2 5 C-2 4.34 -2 3.68 -2 3 C-2.99 3.33 -3.98 3.66 -5 4 C-5.66 3.34 -6.32 2.68 -7 2 C-2.25 0 -2.25 0 0 0 Z " fill="#151515" transform="translate(186,115)"/>
<path d="M0 0 C1.65 0.33 3.3 0.66 5 1 C5 1.66 5 2.32 5 3 C3.35 3.66 1.7 4.32 0 5 C-0.33 4.01 -0.66 3.02 -1 2 C-0.67 1.34 -0.34 0.68 0 0 Z " fill="#101010" transform="translate(279,306)"/>
<path d="M0 0 C4.62 0 9.24 0 14 0 C12.68 1.32 11.36 2.64 10 4 C10 3.01 10 2.02 10 1 C6.7 1 3.4 1 0 1 C0 0.67 0 0.34 0 0 Z " fill="#D0D0D0" transform="translate(294,228)"/>
<path d="M0 0 C0.33 0.99 0.66 1.98 1 3 C1.66 3.33 2.32 3.66 3 4 C1.35 4.66 -0.3 5.32 -2 6 C-2.66 4.68 -3.32 3.36 -4 2 C-2.68 1.34 -1.36 0.68 0 0 Z " fill="#181818" transform="translate(199,378)"/>
<path d="M0 0 C0.66 0.33 1.32 0.66 2 1 C1.34 1.66 0.68 2.32 0 3 C0.66 3.66 1.32 4.32 2 5 C0.68 5.33 -0.64 5.66 -2 6 C-2 5.34 -2 4.68 -2 4 C-2.99 3.67 -3.98 3.34 -5 3 C-3 1 -3 1 0 0 Z " fill="#2A2A2A" transform="translate(151,244)"/>
<path d="M0 0 C0.33 0.66 0.66 1.32 1 2 C1.66 2 2.32 2 3 2 C3 2.99 3 3.98 3 5 C2.01 5.33 1.02 5.66 0 6 C-2.1875 4.5625 -2.1875 4.5625 -4 3 C-2.68 2.67 -1.36 2.34 0 2 C0 1.34 0 0.68 0 0 Z " fill="#212121" transform="translate(126,234)"/>
<path d="M0 0 C0.66 0.33 1.32 0.66 2 1 C1.67 1.66 1.34 2.32 1 3 C1.66 3.33 2.32 3.66 3 4 C2.34 4 1.68 4 1 4 C0.67 4.66 0.34 5.32 0 6 C-0.99 5.01 -1.98 4.02 -3 3 C-2.01 2.01 -1.02 1.02 0 0 Z " fill="#282828" transform="translate(224,412)"/>
<path d="M0 0 C0.66 0.33 1.32 0.66 2 1 C1.34 1.66 0.68 2.32 0 3 C0.33 3.66 0.66 4.32 1 5 C-0.98 5.33 -2.96 5.66 -5 6 C-3.86695008 2.60085025 -2.87481525 1.94745549 0 0 Z " fill="#E0E0E0" transform="translate(275,304)"/>
<path d="M0 0 C-2.97 1.32 -5.94 2.64 -9 4 C-9.66 3.34 -10.32 2.68 -11 2 C-9.54494642 1.47007308 -8.08581873 0.9513211 -6.625 0.4375 C-5.81289063 0.14746094 -5.00078125 -0.14257812 -4.1640625 -0.44140625 C-2 -1 -2 -1 0 0 Z " fill="#4C4C4C" transform="translate(323,304)"/>
<path d="M0 0 C-0.66 1.98 -1.32 3.96 -2 6 C-2.66 5.67 -3.32 5.34 -4 5 C-4 4.34 -4 3.68 -4 3 C-4.66 2.67 -5.32 2.34 -6 2 C-2.25 0 -2.25 0 0 0 Z " fill="#C6C6C6" transform="translate(173,144)"/>
<path d="M0 0 C2 3.875 2 3.875 2 5 C0.02 5 -1.96 5 -4 5 C-2.25 1.125 -2.25 1.125 0 0 Z " fill="#DFDEDF" transform="translate(340,431)"/>
<path d="M0 0 C0.78375 0.04125 1.5675 0.0825 2.375 0.125 C0.89 2.105 0.89 2.105 -0.625 4.125 C-1.945 3.465 -3.265 2.805 -4.625 2.125 C-2.625 0.125 -2.625 0.125 0 0 Z " fill="#222222" transform="translate(257.625,423.875)"/>
<path d="M0 0 C0.66 0.33 1.32 0.66 2 1 C-2.625 5.875 -2.625 5.875 -6 7 C-4.60667426 3.63279613 -3.0210714 2.0140476 0 0 Z " fill="#DFDFDF" transform="translate(219,404)"/>
<path d="M0 0 C0.66 0.33 1.32 0.66 2 1 C1.34 1.66 0.68 2.32 0 3 C-0.69748583 4.31747324 -1.36959957 5.64914193 -2 7 C-2.99 6.01 -3.98 5.02 -5 4 C-3.35 2.68 -1.7 1.36 0 0 Z " fill="#242424" transform="translate(216,401)"/>
<path d="M0 0 C0.66 0.33 1.32 0.66 2 1 C0.84826645 3.46800047 -0.04783565 5.04783565 -2 7 C-2.6875 5.1875 -2.6875 5.1875 -3 3 C-1.5625 1.25 -1.5625 1.25 0 0 Z " fill="#121212" transform="translate(204,397)"/>
<path d="M0 0 C2.31 0.33 4.62 0.66 7 1 C6.67 1.99 6.34 2.98 6 4 C1.125 2.25 1.125 2.25 0 0 Z " fill="#D3CED0" transform="translate(265,330)"/>
<path d="M0 0 C2.31 0 4.62 0 7 0 C4.94766315 2.2477975 3.99332739 3.0022242 1 4 C0.67 2.68 0.34 1.36 0 0 Z " fill="#E8E8E8" transform="translate(154,308)"/>
<path d="M0 0 C0 0.99 0 1.98 0 3 C0.66 3.33 1.32 3.66 2 4 C0.35 4.33 -1.3 4.66 -3 5 C-3 4.01 -3 3.02 -3 2 C-3.66 1.67 -4.32 1.34 -5 1 C-2 0 -2 0 0 0 Z " fill="#181818" transform="translate(156,163)"/>
<path d="M0 0 C0.66 0.33 1.32 0.66 2 1 C-0.97 3.475 -0.97 3.475 -4 6 C-4.99 5.34 -5.98 4.68 -7 4 C-1.7265625 0.77734375 -1.7265625 0.77734375 0 0 Z " fill="#E0E0E0" transform="translate(251,77)"/>
<path d="" fill="#FFFFFF" transform="translate(0,0)"/>
<path d="" fill="#FFFFFF" transform="translate(0,0)"/>
<path d="" fill="#FFFFFF" transform="translate(0,0)"/>
<path d="" fill="#FFFFFF" transform="translate(0,0)"/>
<path d="" fill="#FFFFFF" transform="translate(0,0)"/>
<path d="" fill="#FFFFFF" transform="translate(0,0)"/>
<path d="" fill="#FFFFFF" transform="translate(0,0)"/>
<path d="" fill="#FFFFFF" transform="translate(0,0)"/>
<path d="" fill="#FFFFFF" transform="translate(0,0)"/>
<path d="" fill="#FFFFFF" transform="translate(0,0)"/>
<path d="" fill="#FFFFFF" transform="translate(0,0)"/>
<path d="" fill="#FFFFFF" transform="translate(0,0)"/>
<path d="" fill="#FFFFFF" transform="translate(0,0)"/>
<path d="" fill="#FFFFFF" transform="translate(0,0)"/>
<path d="" fill="#FFFFFF" transform="translate(0,0)"/>
<path d="" fill="#FFFFFF" transform="translate(0,0)"/>
<path d="" fill="#FFFFFF" transform="translate(0,0)"/>
<path d="" fill="#FFFFFF" transform="translate(0,0)"/>
<path d="" fill="#FFFFFF" transform="translate(0,0)"/>
<path d="" fill="#FFFFFF" transform="translate(0,0)"/>
<path d="" fill="#FFFFFF" transform="translate(0,0)"/>
<path d="" fill="#FFFFFF" transform="translate(0,0)"/>
<path d="" fill="#FFFFFF" transform="translate(0,0)"/>
<path d="" fill="#FFFFFF" transform="translate(0,0)"/>
<path d="" fill="#FFFFFF" transform="translate(0,0)"/>
<path d="" fill="#FFFFFF" transform="translate(0,0)"/>
<path d="" fill="#FFFFFF" transform="translate(0,0)"/>
<path d="" fill="#FFFFFF" transform="translate(0,0)"/>
<path d="" fill="#FFFFFF" transform="translate(0,0)"/>
<path d="" fill="#FFFFFF" transform="translate(0,0)"/>
<path d="" fill="#FFFFFF" transform="translate(0,0)"/>
<path d="" fill="#FEFFFF" transform="translate(0,0)"/>
<path d="" fill="#FFFFFF" transform="translate(0,0)"/>
<path d="" fill="#FFFFFF" transform="translate(0,0)"/>
<path d="" fill="#FFFFFF" transform="translate(0,0)"/>
<path d="" fill="#FFFFFF" transform="translate(0,0)"/>
<path d="" fill="#FFFFFF" transform="translate(0,0)"/>
<path d="" fill="#FFFFFF" transform="translate(0,0)"/>
<path d="" fill="#FFFFFF" transform="translate(0,0)"/>
<path d="" fill="#FFFFFF" transform="translate(0,0)"/>
<path d="" fill="#FFFFFF" transform="translate(0,0)"/>
<path d="" fill="#FFFFFF" transform="translate(0,0)"/>
<path d="" fill="#FFFFFF" transform="translate(0,0)"/>
<path d="" fill="#FFFFFF" transform="translate(0,0)"/>
<path d="" fill="#FFFFFF" transform="translate(0,0)"/>
<path d="" fill="#FFFFFF" transform="translate(0,0)"/>
<path d="" fill="#FFFFFF" transform="translate(0,0)"/>
<path d="" fill="#FFFFFF" transform="translate(0,0)"/>
<path d="" fill="#FFFFFF" transform="translate(0,0)"/>
<path d="" fill="#FFFFFF" transform="translate(0,0)"/>
<path d="" fill="#FFFFFF" transform="translate(0,0)"/>
<path d="" fill="#FFFFFF" transform="translate(0,0)"/>
</svg>
